<mxfile host="Electron" agent="Mozilla/5.0 (Windows NT 10.0; Win64; x64) AppleWebKit/537.36 (KHTML, like Gecko) draw.io/28.1.2 Chrome/138.0.7204.243 Electron/37.4.0 Safari/537.36" version="28.1.2" pages="2">
  <diagram name="Page-1" id="l15hVxWtN5V961jEMN0H">
    <mxGraphModel dx="1664" dy="1511" grid="1" gridSize="10" guides="1" tooltips="1" connect="1" arrows="1" fold="1" page="1" pageScale="1" pageWidth="827" pageHeight="1169" math="0" shadow="0">
      <root>
        <mxCell id="0" />
        <mxCell id="1" parent="0" />
        <mxCell id="Tt5g-muoC2hDER8yVrpR-4" style="edgeStyle=orthogonalEdgeStyle;rounded=0;orthogonalLoop=1;jettySize=auto;html=1;exitX=0.5;exitY=1;exitDx=0;exitDy=0;entryX=0.5;entryY=0;entryDx=0;entryDy=0;" parent="1" source="EEaqtzHg9umlrLZNNHe9-2" target="EEaqtzHg9umlrLZNNHe9-3" edge="1">
          <mxGeometry relative="1" as="geometry" />
        </mxCell>
        <mxCell id="EEaqtzHg9umlrLZNNHe9-2" value="Start" style="rounded=1;whiteSpace=wrap;html=1;arcSize=50;fontFamily=Times New Roman;fillColor=#e1d5e7;strokeColor=#9673a6;fontSize=13;" parent="1" vertex="1">
          <mxGeometry x="950" y="50" width="40" height="20" as="geometry" />
        </mxCell>
        <mxCell id="Tt5g-muoC2hDER8yVrpR-5" style="edgeStyle=orthogonalEdgeStyle;rounded=0;orthogonalLoop=1;jettySize=auto;html=1;exitX=0.5;exitY=1;exitDx=0;exitDy=0;entryX=0.5;entryY=0;entryDx=0;entryDy=0;" parent="1" source="EEaqtzHg9umlrLZNNHe9-3" target="EEaqtzHg9umlrLZNNHe9-4" edge="1">
          <mxGeometry relative="1" as="geometry" />
        </mxCell>
        <mxCell id="EEaqtzHg9umlrLZNNHe9-3" value="akun_admin = [[&quot;admin&quot;, &quot;1234&quot;]]" style="rounded=0;whiteSpace=wrap;html=1;fontFamily=Times New Roman;fillColor=#fff2cc;strokeColor=#d6b656;fontSize=13;" parent="1" vertex="1">
          <mxGeometry x="885" y="90" width="170" height="40" as="geometry" />
        </mxCell>
        <mxCell id="Tt5g-muoC2hDER8yVrpR-6" style="edgeStyle=orthogonalEdgeStyle;rounded=0;orthogonalLoop=1;jettySize=auto;html=1;exitX=0.5;exitY=1;exitDx=0;exitDy=0;entryX=0.5;entryY=0;entryDx=0;entryDy=0;" parent="1" source="EEaqtzHg9umlrLZNNHe9-4" target="EEaqtzHg9umlrLZNNHe9-5" edge="1">
          <mxGeometry relative="1" as="geometry" />
        </mxCell>
        <mxCell id="EEaqtzHg9umlrLZNNHe9-4" value="akun_user = []" style="rounded=0;whiteSpace=wrap;html=1;fontFamily=Times New Roman;fillColor=#fff2cc;strokeColor=#d6b656;fontSize=13;" parent="1" vertex="1">
          <mxGeometry x="885" y="160" width="170" height="40" as="geometry" />
        </mxCell>
        <mxCell id="Tt5g-muoC2hDER8yVrpR-7" style="edgeStyle=orthogonalEdgeStyle;rounded=0;orthogonalLoop=1;jettySize=auto;html=1;exitX=0.5;exitY=1;exitDx=0;exitDy=0;entryX=0.5;entryY=0;entryDx=0;entryDy=0;" parent="1" source="EEaqtzHg9umlrLZNNHe9-5" target="EEaqtzHg9umlrLZNNHe9-6" edge="1">
          <mxGeometry relative="1" as="geometry" />
        </mxCell>
        <mxCell id="EEaqtzHg9umlrLZNNHe9-5" value="&lt;font style=&quot;color: rgb(0, 0, 0); background-color: light-dark(#ffffff, var(--ge-dark-color, #121212));&quot; face=&quot;Times New Roman&quot;&gt;komponen_pc =&amp;nbsp;&lt;span style=&quot;font-size: 14px; white-space: pre;&quot;&gt;[&lt;/span&gt;&lt;/font&gt;&lt;div style=&quot;line-height: 19px;&quot;&gt;&lt;div style=&quot;&quot;&gt;&lt;font style=&quot;font-size: 14px; white-space: pre; color: rgb(0, 0, 0); background-color: light-dark(#ffffff, var(--ge-dark-color, #121212));&quot; face=&quot;Times New Roman&quot;&gt;&amp;nbsp; &amp;nbsp;&lt;/font&gt;&lt;span style=&quot;background-color: transparent; font-size: 14px; white-space: pre;&quot;&gt;[&quot;Processor Intel i5&quot;, 10, 2500000],&lt;/span&gt;&lt;/div&gt;&lt;span style=&quot;font-size: 14px; white-space: pre;&quot;&gt;    [&quot;RAM DDR4 8GB&quot;, 15, 600000],&lt;br/&gt;    [&quot;SSD 512GB&quot;, 8, 900000]&lt;/span&gt;&lt;div style=&quot;font-size: 14px; white-space: pre;&quot;&gt;&lt;font style=&quot;color: rgb(0, 0, 0); background-color: light-dark(#ffffff, var(--ge-dark-color, #121212));&quot; face=&quot;Times New Roman&quot;&gt;]&lt;/font&gt;&lt;/div&gt;&lt;/div&gt;" style="rounded=0;whiteSpace=wrap;html=1;fontFamily=Times New Roman;fillColor=#fff2cc;strokeColor=#d6b656;fontSize=13;" parent="1" vertex="1">
          <mxGeometry x="850" y="230" width="240" height="100" as="geometry" />
        </mxCell>
        <mxCell id="Tt5g-muoC2hDER8yVrpR-8" style="edgeStyle=orthogonalEdgeStyle;rounded=0;orthogonalLoop=1;jettySize=auto;html=1;exitX=0.5;exitY=1;exitDx=0;exitDy=0;entryX=0.5;entryY=0;entryDx=0;entryDy=0;" parent="1" source="EEaqtzHg9umlrLZNNHe9-6" target="EEaqtzHg9umlrLZNNHe9-100" edge="1">
          <mxGeometry relative="1" as="geometry" />
        </mxCell>
        <mxCell id="EEaqtzHg9umlrLZNNHe9-6" value="transaksi = []" style="rounded=0;whiteSpace=wrap;html=1;fontFamily=Times New Roman;fillColor=#fff2cc;strokeColor=#d6b656;fontSize=13;" parent="1" vertex="1">
          <mxGeometry x="885" y="360" width="170" height="40" as="geometry" />
        </mxCell>
        <mxCell id="Tt5g-muoC2hDER8yVrpR-9" style="edgeStyle=orthogonalEdgeStyle;rounded=0;orthogonalLoop=1;jettySize=auto;html=1;exitX=0.5;exitY=1;exitDx=0;exitDy=0;entryX=0.5;entryY=0;entryDx=0;entryDy=0;" parent="1" source="EEaqtzHg9umlrLZNNHe9-100" target="EEaqtzHg9umlrLZNNHe9-101" edge="1">
          <mxGeometry relative="1" as="geometry" />
        </mxCell>
        <mxCell id="EEaqtzHg9umlrLZNNHe9-100" value="login_admin = false" style="rounded=0;whiteSpace=wrap;html=1;fontFamily=Times New Roman;fillColor=#fff2cc;strokeColor=#d6b656;fontSize=13;" parent="1" vertex="1">
          <mxGeometry x="885" y="431" width="170" height="40" as="geometry" />
        </mxCell>
        <mxCell id="Tt5g-muoC2hDER8yVrpR-10" style="edgeStyle=orthogonalEdgeStyle;rounded=0;orthogonalLoop=1;jettySize=auto;html=1;exitX=0.5;exitY=1;exitDx=0;exitDy=0;entryX=0.5;entryY=0;entryDx=0;entryDy=0;" parent="1" source="EEaqtzHg9umlrLZNNHe9-101" target="Tt5g-muoC2hDER8yVrpR-1" edge="1">
          <mxGeometry relative="1" as="geometry" />
        </mxCell>
        <mxCell id="EEaqtzHg9umlrLZNNHe9-101" value="login_user = false" style="rounded=0;whiteSpace=wrap;html=1;fontFamily=Times New Roman;fillColor=#fff2cc;strokeColor=#d6b656;fontSize=13;" parent="1" vertex="1">
          <mxGeometry x="885" y="501" width="170" height="40" as="geometry" />
        </mxCell>
        <mxCell id="Tt5g-muoC2hDER8yVrpR-3" style="edgeStyle=orthogonalEdgeStyle;rounded=0;orthogonalLoop=1;jettySize=auto;html=1;exitX=1;exitY=0.5;exitDx=0;exitDy=0;entryX=0;entryY=0.5;entryDx=0;entryDy=0;" parent="1" source="Tt5g-muoC2hDER8yVrpR-1" target="Tt5g-muoC2hDER8yVrpR-2" edge="1">
          <mxGeometry relative="1" as="geometry" />
        </mxCell>
        <mxCell id="ny9qsc9HZoNVvO1qv55G-65" style="edgeStyle=orthogonalEdgeStyle;rounded=0;orthogonalLoop=1;jettySize=auto;html=1;exitX=0.5;exitY=1;exitDx=0;exitDy=0;entryX=0.5;entryY=0;entryDx=0;entryDy=0;" parent="1" source="Tt5g-muoC2hDER8yVrpR-1" target="Tt5g-muoC2hDER8yVrpR-11" edge="1">
          <mxGeometry relative="1" as="geometry" />
        </mxCell>
        <mxCell id="Tt5g-muoC2hDER8yVrpR-1" value="while True" style="shape=hexagon;perimeter=hexagonPerimeter2;whiteSpace=wrap;html=1;fixedSize=1;fontFamily=Times New Roman;fillColor=#ffe6cc;strokeColor=#d79b00;fontSize=13;" parent="1" vertex="1">
          <mxGeometry x="920" y="580" width="100" height="40" as="geometry" />
        </mxCell>
        <mxCell id="Tt5g-muoC2hDER8yVrpR-29" style="edgeStyle=orthogonalEdgeStyle;rounded=0;orthogonalLoop=1;jettySize=auto;html=1;exitX=1;exitY=0.5;exitDx=0;exitDy=0;entryX=0;entryY=0.5;entryDx=0;entryDy=0;" parent="1" source="Tt5g-muoC2hDER8yVrpR-2" target="Tt5g-muoC2hDER8yVrpR-13" edge="1">
          <mxGeometry relative="1" as="geometry" />
        </mxCell>
        <mxCell id="Tt5g-muoC2hDER8yVrpR-2" value="Output&lt;div&gt;&quot;1. Login, 2. Register, 3. Keluar&quot;&lt;/div&gt;" style="shape=parallelogram;perimeter=parallelogramPerimeter;whiteSpace=wrap;html=1;fixedSize=1;fontFamily=Times New Roman;fillColor=#d5e8d4;strokeColor=#82b366;fontSize=13;" parent="1" vertex="1">
          <mxGeometry x="1055" y="580" width="140" height="40" as="geometry" />
        </mxCell>
        <mxCell id="Tt5g-muoC2hDER8yVrpR-11" value="End" style="rounded=1;whiteSpace=wrap;html=1;arcSize=50;fontFamily=Times New Roman;fillColor=#e1d5e7;strokeColor=#9673a6;fontSize=13;" parent="1" vertex="1">
          <mxGeometry x="950" y="1370" width="40" height="20" as="geometry" />
        </mxCell>
        <mxCell id="Tt5g-muoC2hDER8yVrpR-30" style="edgeStyle=orthogonalEdgeStyle;rounded=0;orthogonalLoop=1;jettySize=auto;html=1;exitX=0.5;exitY=1;exitDx=0;exitDy=0;entryX=0.5;entryY=0;entryDx=0;entryDy=0;" parent="1" source="Tt5g-muoC2hDER8yVrpR-13" target="Tt5g-muoC2hDER8yVrpR-15" edge="1">
          <mxGeometry relative="1" as="geometry" />
        </mxCell>
        <mxCell id="Tt5g-muoC2hDER8yVrpR-13" value="Input pilihan" style="shape=parallelogram;perimeter=parallelogramPerimeter;whiteSpace=wrap;html=1;fixedSize=1;fontFamily=Times New Roman;fillColor=#dae8fc;strokeColor=#6c8ebf;fontSize=13;" parent="1" vertex="1">
          <mxGeometry x="1220" y="580" width="130" height="40" as="geometry" />
        </mxCell>
        <mxCell id="Tt5g-muoC2hDER8yVrpR-58" style="edgeStyle=orthogonalEdgeStyle;rounded=0;orthogonalLoop=1;jettySize=auto;html=1;exitX=1;exitY=0.5;exitDx=0;exitDy=0;entryX=0;entryY=0.5;entryDx=0;entryDy=0;" parent="1" source="Tt5g-muoC2hDER8yVrpR-14" target="Tt5g-muoC2hDER8yVrpR-57" edge="1">
          <mxGeometry relative="1" as="geometry" />
        </mxCell>
        <mxCell id="Tt5g-muoC2hDER8yVrpR-60" style="edgeStyle=orthogonalEdgeStyle;rounded=0;orthogonalLoop=1;jettySize=auto;html=1;exitX=0.5;exitY=1;exitDx=0;exitDy=0;entryX=0.5;entryY=0;entryDx=0;entryDy=0;" parent="1" source="Tt5g-muoC2hDER8yVrpR-14" target="Tt5g-muoC2hDER8yVrpR-59" edge="1">
          <mxGeometry relative="1" as="geometry" />
        </mxCell>
        <mxCell id="Tt5g-muoC2hDER8yVrpR-14" value="duplikat = true" style="rhombus;whiteSpace=wrap;html=1;fontFamily=Times New Roman;fillColor=#f8cecc;strokeColor=#b85450;fontSize=13;" parent="1" vertex="1">
          <mxGeometry x="1242.5" y="351" width="80" height="80" as="geometry" />
        </mxCell>
        <mxCell id="Tt5g-muoC2hDER8yVrpR-32" style="edgeStyle=orthogonalEdgeStyle;rounded=0;orthogonalLoop=1;jettySize=auto;html=1;exitX=0.5;exitY=1;exitDx=0;exitDy=0;entryX=0.5;entryY=0;entryDx=0;entryDy=0;" parent="1" source="Tt5g-muoC2hDER8yVrpR-15" target="Tt5g-muoC2hDER8yVrpR-16" edge="1">
          <mxGeometry relative="1" as="geometry" />
        </mxCell>
        <mxCell id="Tt5g-muoC2hDER8yVrpR-36" style="edgeStyle=orthogonalEdgeStyle;rounded=0;orthogonalLoop=1;jettySize=auto;html=1;exitX=1;exitY=0.5;exitDx=0;exitDy=0;entryX=0;entryY=0.5;entryDx=0;entryDy=0;" parent="1" source="Tt5g-muoC2hDER8yVrpR-15" target="Tt5g-muoC2hDER8yVrpR-35" edge="1">
          <mxGeometry relative="1" as="geometry" />
        </mxCell>
        <mxCell id="Tt5g-muoC2hDER8yVrpR-15" value="pilihan = &quot;1&quot;" style="rhombus;whiteSpace=wrap;html=1;fontFamily=Times New Roman;fillColor=#f8cecc;strokeColor=#b85450;fontSize=13;" parent="1" vertex="1">
          <mxGeometry x="1245" y="650" width="80" height="80" as="geometry" />
        </mxCell>
        <mxCell id="Tt5g-muoC2hDER8yVrpR-33" style="edgeStyle=orthogonalEdgeStyle;rounded=0;orthogonalLoop=1;jettySize=auto;html=1;exitX=0.5;exitY=1;exitDx=0;exitDy=0;entryX=0.5;entryY=0;entryDx=0;entryDy=0;" parent="1" source="Tt5g-muoC2hDER8yVrpR-16" target="Tt5g-muoC2hDER8yVrpR-17" edge="1">
          <mxGeometry relative="1" as="geometry" />
        </mxCell>
        <mxCell id="Tt5g-muoC2hDER8yVrpR-16" value="Output&lt;div&gt;&quot;1. Login Admin, 2. Login User, 3. Kembali&quot;&lt;/div&gt;" style="shape=parallelogram;perimeter=parallelogramPerimeter;whiteSpace=wrap;html=1;fixedSize=1;fontFamily=Times New Roman;fillColor=#d5e8d4;strokeColor=#82b366;fontSize=13;" parent="1" vertex="1">
          <mxGeometry x="1215" y="760" width="140" height="40" as="geometry" />
        </mxCell>
        <mxCell id="Tt5g-muoC2hDER8yVrpR-24" style="edgeStyle=orthogonalEdgeStyle;rounded=0;orthogonalLoop=1;jettySize=auto;html=1;exitX=1;exitY=0.5;exitDx=0;exitDy=0;entryX=0;entryY=0.5;entryDx=0;entryDy=0;" parent="1" source="Tt5g-muoC2hDER8yVrpR-17" target="Tt5g-muoC2hDER8yVrpR-19" edge="1">
          <mxGeometry relative="1" as="geometry" />
        </mxCell>
        <mxCell id="1gdPhKEpt5hJLUV513rt-2" style="edgeStyle=orthogonalEdgeStyle;rounded=0;orthogonalLoop=1;jettySize=auto;html=1;exitX=0.5;exitY=1;exitDx=0;exitDy=0;entryX=0.5;entryY=0;entryDx=0;entryDy=0;" edge="1" parent="1" source="Tt5g-muoC2hDER8yVrpR-17" target="1gdPhKEpt5hJLUV513rt-1">
          <mxGeometry relative="1" as="geometry" />
        </mxCell>
        <mxCell id="Tt5g-muoC2hDER8yVrpR-17" value="pilih_login = &quot;1&quot;" style="rhombus;whiteSpace=wrap;html=1;fontFamily=Times New Roman;fillColor=#f8cecc;strokeColor=#b85450;fontSize=13;" parent="1" vertex="1">
          <mxGeometry x="1245" y="830" width="80" height="80" as="geometry" />
        </mxCell>
        <mxCell id="Tt5g-muoC2hDER8yVrpR-25" style="edgeStyle=orthogonalEdgeStyle;rounded=0;orthogonalLoop=1;jettySize=auto;html=1;exitX=1;exitY=0.5;exitDx=0;exitDy=0;entryX=0;entryY=0.5;entryDx=0;entryDy=0;" parent="1" source="Tt5g-muoC2hDER8yVrpR-19" target="Tt5g-muoC2hDER8yVrpR-20" edge="1">
          <mxGeometry relative="1" as="geometry" />
        </mxCell>
        <mxCell id="Tt5g-muoC2hDER8yVrpR-19" value="Input username, password" style="shape=parallelogram;perimeter=parallelogramPerimeter;whiteSpace=wrap;html=1;fixedSize=1;fontFamily=Times New Roman;fillColor=#dae8fc;strokeColor=#6c8ebf;fontSize=13;" parent="1" vertex="1">
          <mxGeometry x="1335" y="850" width="130" height="40" as="geometry" />
        </mxCell>
        <mxCell id="Tt5g-muoC2hDER8yVrpR-23" style="edgeStyle=orthogonalEdgeStyle;rounded=0;orthogonalLoop=1;jettySize=auto;html=1;exitX=0.5;exitY=1;exitDx=0;exitDy=0;entryX=0.5;entryY=0;entryDx=0;entryDy=0;" parent="1" source="Tt5g-muoC2hDER8yVrpR-20" target="Tt5g-muoC2hDER8yVrpR-21" edge="1">
          <mxGeometry relative="1" as="geometry" />
        </mxCell>
        <mxCell id="Tt5g-muoC2hDER8yVrpR-27" style="edgeStyle=orthogonalEdgeStyle;rounded=0;orthogonalLoop=1;jettySize=auto;html=1;exitX=1;exitY=0.5;exitDx=0;exitDy=0;entryX=0;entryY=0.5;entryDx=0;entryDy=0;" parent="1" source="Tt5g-muoC2hDER8yVrpR-20" target="Tt5g-muoC2hDER8yVrpR-26" edge="1">
          <mxGeometry relative="1" as="geometry" />
        </mxCell>
        <mxCell id="Tt5g-muoC2hDER8yVrpR-20" value="username == akun_admin[0][0]&amp;nbsp;&lt;div&gt;&amp;amp;&amp;amp; password == akun_admin[0][1]&lt;/div&gt;" style="rhombus;whiteSpace=wrap;html=1;fontFamily=Times New Roman;fillColor=#f8cecc;strokeColor=#b85450;fontSize=13;" parent="1" vertex="1">
          <mxGeometry x="1480" y="830" width="210" height="80" as="geometry" />
        </mxCell>
        <mxCell id="Tt5g-muoC2hDER8yVrpR-22" style="edgeStyle=orthogonalEdgeStyle;rounded=0;orthogonalLoop=1;jettySize=auto;html=1;exitX=0.5;exitY=1;exitDx=0;exitDy=0;entryX=1;entryY=1;entryDx=0;entryDy=0;" parent="1" source="Tt5g-muoC2hDER8yVrpR-21" target="Tt5g-muoC2hDER8yVrpR-17" edge="1">
          <mxGeometry relative="1" as="geometry" />
        </mxCell>
        <mxCell id="Tt5g-muoC2hDER8yVrpR-21" value="Output&lt;div&gt;&quot;Username atau password admin salah!&quot;&lt;/div&gt;" style="shape=parallelogram;perimeter=parallelogramPerimeter;whiteSpace=wrap;html=1;fixedSize=1;fontFamily=Times New Roman;fillColor=#d5e8d4;strokeColor=#82b366;fontSize=13;" parent="1" vertex="1">
          <mxGeometry x="1514" y="930" width="140" height="40" as="geometry" />
        </mxCell>
        <mxCell id="Tt5g-muoC2hDER8yVrpR-26" value="login_admin = true" style="rounded=0;whiteSpace=wrap;html=1;fontFamily=Times New Roman;fillColor=#fff2cc;strokeColor=#d6b656;fontSize=13;" parent="1" vertex="1">
          <mxGeometry x="1710" y="850" width="130" height="40" as="geometry" />
        </mxCell>
        <mxCell id="Tt5g-muoC2hDER8yVrpR-35" value="A" style="ellipse;whiteSpace=wrap;html=1;aspect=fixed;" parent="1" vertex="1">
          <mxGeometry x="1370" y="670" width="40" height="40" as="geometry" />
        </mxCell>
        <mxCell id="Tt5g-muoC2hDER8yVrpR-43" style="edgeStyle=orthogonalEdgeStyle;rounded=0;orthogonalLoop=1;jettySize=auto;html=1;exitX=1;exitY=0.5;exitDx=0;exitDy=0;entryX=0;entryY=0.5;entryDx=0;entryDy=0;" parent="1" source="Tt5g-muoC2hDER8yVrpR-37" target="Tt5g-muoC2hDER8yVrpR-39" edge="1">
          <mxGeometry relative="1" as="geometry" />
        </mxCell>
        <mxCell id="Tt5g-muoC2hDER8yVrpR-37" value="A" style="ellipse;whiteSpace=wrap;html=1;aspect=fixed;" parent="1" vertex="1">
          <mxGeometry x="1180" y="50" width="40" height="40" as="geometry" />
        </mxCell>
        <mxCell id="Tt5g-muoC2hDER8yVrpR-41" style="edgeStyle=orthogonalEdgeStyle;rounded=0;orthogonalLoop=1;jettySize=auto;html=1;exitX=1;exitY=0.5;exitDx=0;exitDy=0;entryX=0;entryY=0.5;entryDx=0;entryDy=0;" parent="1" source="Tt5g-muoC2hDER8yVrpR-39" target="Tt5g-muoC2hDER8yVrpR-79" edge="1">
          <mxGeometry relative="1" as="geometry">
            <mxPoint x="1350" y="70" as="targetPoint" />
          </mxGeometry>
        </mxCell>
        <mxCell id="ny9qsc9HZoNVvO1qv55G-68" value="False" style="edgeLabel;html=1;align=center;verticalAlign=middle;resizable=0;points=[];" parent="Tt5g-muoC2hDER8yVrpR-41" vertex="1" connectable="0">
          <mxGeometry x="-0.1357" relative="1" as="geometry">
            <mxPoint as="offset" />
          </mxGeometry>
        </mxCell>
        <mxCell id="ny9qsc9HZoNVvO1qv55G-70" value="False" style="edgeLabel;html=1;align=center;verticalAlign=middle;resizable=0;points=[];" parent="Tt5g-muoC2hDER8yVrpR-41" vertex="1" connectable="0">
          <mxGeometry x="-0.1357" relative="1" as="geometry">
            <mxPoint x="128" y="-10" as="offset" />
          </mxGeometry>
        </mxCell>
        <mxCell id="Tt5g-muoC2hDER8yVrpR-44" style="edgeStyle=orthogonalEdgeStyle;rounded=0;orthogonalLoop=1;jettySize=auto;html=1;exitX=0.5;exitY=1;exitDx=0;exitDy=0;entryX=0.5;entryY=0;entryDx=0;entryDy=0;" parent="1" source="Tt5g-muoC2hDER8yVrpR-39" target="Tt5g-muoC2hDER8yVrpR-40" edge="1">
          <mxGeometry relative="1" as="geometry" />
        </mxCell>
        <mxCell id="ny9qsc9HZoNVvO1qv55G-69" value="True" style="edgeLabel;html=1;align=center;verticalAlign=middle;resizable=0;points=[];" parent="Tt5g-muoC2hDER8yVrpR-44" vertex="1" connectable="0">
          <mxGeometry x="-0.202" relative="1" as="geometry">
            <mxPoint as="offset" />
          </mxGeometry>
        </mxCell>
        <mxCell id="Tt5g-muoC2hDER8yVrpR-39" value="pilihan = &quot;2&quot;" style="rhombus;whiteSpace=wrap;html=1;fontFamily=Times New Roman;fillColor=#f8cecc;strokeColor=#b85450;fontSize=13;" parent="1" vertex="1">
          <mxGeometry x="1241" y="30" width="80" height="80" as="geometry" />
        </mxCell>
        <mxCell id="Tt5g-muoC2hDER8yVrpR-53" style="edgeStyle=orthogonalEdgeStyle;rounded=0;orthogonalLoop=1;jettySize=auto;html=1;exitX=0.5;exitY=1;exitDx=0;exitDy=0;entryX=0.5;entryY=0;entryDx=0;entryDy=0;" parent="1" source="Tt5g-muoC2hDER8yVrpR-40" target="Tt5g-muoC2hDER8yVrpR-45" edge="1">
          <mxGeometry relative="1" as="geometry" />
        </mxCell>
        <mxCell id="Tt5g-muoC2hDER8yVrpR-40" value="Input username_baru, password_baru" style="shape=parallelogram;perimeter=parallelogramPerimeter;whiteSpace=wrap;html=1;fixedSize=1;fontFamily=Times New Roman;fillColor=#dae8fc;strokeColor=#6c8ebf;fontSize=13;" parent="1" vertex="1">
          <mxGeometry x="1215" y="130" width="130" height="40" as="geometry" />
        </mxCell>
        <mxCell id="Tt5g-muoC2hDER8yVrpR-54" style="edgeStyle=orthogonalEdgeStyle;rounded=0;orthogonalLoop=1;jettySize=auto;html=1;exitX=0.5;exitY=1;exitDx=0;exitDy=0;entryX=0.5;entryY=0;entryDx=0;entryDy=0;" parent="1" source="Tt5g-muoC2hDER8yVrpR-45" target="Tt5g-muoC2hDER8yVrpR-46" edge="1">
          <mxGeometry relative="1" as="geometry" />
        </mxCell>
        <mxCell id="Tt5g-muoC2hDER8yVrpR-45" value="duplikat = false" style="rounded=0;whiteSpace=wrap;html=1;fontFamily=Times New Roman;fillColor=#fff2cc;strokeColor=#d6b656;fontSize=13;" parent="1" vertex="1">
          <mxGeometry x="1232.5" y="190" width="95" height="30" as="geometry" />
        </mxCell>
        <mxCell id="Tt5g-muoC2hDER8yVrpR-47" style="edgeStyle=orthogonalEdgeStyle;rounded=0;orthogonalLoop=1;jettySize=auto;html=1;exitX=1;exitY=0.5;exitDx=0;exitDy=0;entryX=0;entryY=0.5;entryDx=0;entryDy=0;" parent="1" source="Tt5g-muoC2hDER8yVrpR-46" target="Tt5g-muoC2hDER8yVrpR-48" edge="1">
          <mxGeometry relative="1" as="geometry">
            <mxPoint x="1370" y="270.25" as="targetPoint" />
          </mxGeometry>
        </mxCell>
        <mxCell id="Tt5g-muoC2hDER8yVrpR-55" style="edgeStyle=orthogonalEdgeStyle;rounded=0;orthogonalLoop=1;jettySize=auto;html=1;exitX=0.5;exitY=1;exitDx=0;exitDy=0;entryX=0.5;entryY=0;entryDx=0;entryDy=0;" parent="1" source="Tt5g-muoC2hDER8yVrpR-46" target="Tt5g-muoC2hDER8yVrpR-14" edge="1">
          <mxGeometry relative="1" as="geometry">
            <mxPoint x="1282.5" y="350" as="targetPoint" />
          </mxGeometry>
        </mxCell>
        <mxCell id="Tt5g-muoC2hDER8yVrpR-46" value="for user in akun_user" style="shape=hexagon;perimeter=hexagonPerimeter2;whiteSpace=wrap;html=1;fixedSize=1;fontFamily=Times New Roman;fillColor=#ffe6cc;strokeColor=#d79b00;fontSize=13;" parent="1" vertex="1">
          <mxGeometry x="1232.5" y="250" width="100" height="40" as="geometry" />
        </mxCell>
        <mxCell id="Tt5g-muoC2hDER8yVrpR-50" style="edgeStyle=orthogonalEdgeStyle;rounded=0;orthogonalLoop=1;jettySize=auto;html=1;exitX=1;exitY=0.5;exitDx=0;exitDy=0;entryX=0;entryY=0.5;entryDx=0;entryDy=0;" parent="1" source="Tt5g-muoC2hDER8yVrpR-48" target="Tt5g-muoC2hDER8yVrpR-49" edge="1">
          <mxGeometry relative="1" as="geometry" />
        </mxCell>
        <mxCell id="Tt5g-muoC2hDER8yVrpR-52" style="edgeStyle=orthogonalEdgeStyle;rounded=0;orthogonalLoop=1;jettySize=auto;html=1;exitX=0.5;exitY=1;exitDx=0;exitDy=0;entryX=0.625;entryY=1;entryDx=0;entryDy=0;" parent="1" source="Tt5g-muoC2hDER8yVrpR-48" target="Tt5g-muoC2hDER8yVrpR-46" edge="1">
          <mxGeometry relative="1" as="geometry" />
        </mxCell>
        <mxCell id="Tt5g-muoC2hDER8yVrpR-48" value="username_baru == user[0]" style="rhombus;whiteSpace=wrap;html=1;fontFamily=Times New Roman;fillColor=#f8cecc;strokeColor=#b85450;fontSize=13;" parent="1" vertex="1">
          <mxGeometry x="1370" y="230" width="80" height="80" as="geometry" />
        </mxCell>
        <mxCell id="Tt5g-muoC2hDER8yVrpR-56" style="edgeStyle=orthogonalEdgeStyle;rounded=0;orthogonalLoop=1;jettySize=auto;html=1;exitX=0.5;exitY=1;exitDx=0;exitDy=0;entryX=1;entryY=0;entryDx=0;entryDy=0;" parent="1" source="Tt5g-muoC2hDER8yVrpR-49" target="Tt5g-muoC2hDER8yVrpR-14" edge="1">
          <mxGeometry relative="1" as="geometry">
            <Array as="points">
              <mxPoint x="1518" y="340" />
              <mxPoint x="1310" y="340" />
              <mxPoint x="1310" y="371" />
            </Array>
          </mxGeometry>
        </mxCell>
        <mxCell id="Tt5g-muoC2hDER8yVrpR-49" value="duplikat = true" style="rounded=0;whiteSpace=wrap;html=1;fontFamily=Times New Roman;fillColor=#fff2cc;strokeColor=#d6b656;fontSize=13;" parent="1" vertex="1">
          <mxGeometry x="1480" y="255" width="95" height="30" as="geometry" />
        </mxCell>
        <mxCell id="Tt5g-muoC2hDER8yVrpR-62" style="edgeStyle=orthogonalEdgeStyle;rounded=0;orthogonalLoop=1;jettySize=auto;html=1;exitX=1;exitY=0.5;exitDx=0;exitDy=0;entryX=0.5;entryY=0;entryDx=0;entryDy=0;" parent="1" source="Tt5g-muoC2hDER8yVrpR-57" target="Tt5g-muoC2hDER8yVrpR-61" edge="1">
          <mxGeometry relative="1" as="geometry" />
        </mxCell>
        <mxCell id="Tt5g-muoC2hDER8yVrpR-57" value="Output&lt;div&gt;&quot;Username sudah digunakan&quot;&lt;/div&gt;" style="shape=parallelogram;perimeter=parallelogramPerimeter;whiteSpace=wrap;html=1;fixedSize=1;fontFamily=Times New Roman;fillColor=#d5e8d4;strokeColor=#82b366;fontSize=13;" parent="1" vertex="1">
          <mxGeometry x="1335" y="371" width="140" height="40" as="geometry" />
        </mxCell>
        <mxCell id="Tt5g-muoC2hDER8yVrpR-63" style="edgeStyle=orthogonalEdgeStyle;rounded=0;orthogonalLoop=1;jettySize=auto;html=1;exitX=1;exitY=0.5;exitDx=0;exitDy=0;entryX=0;entryY=0.5;entryDx=0;entryDy=0;" parent="1" source="Tt5g-muoC2hDER8yVrpR-59" target="Tt5g-muoC2hDER8yVrpR-61" edge="1">
          <mxGeometry relative="1" as="geometry" />
        </mxCell>
        <mxCell id="Tt5g-muoC2hDER8yVrpR-59" value="akun_user.append([username_baru, password_baru])" style="rounded=0;whiteSpace=wrap;html=1;fontFamily=Times New Roman;fillColor=#fff2cc;strokeColor=#d6b656;fontSize=13;" parent="1" vertex="1">
          <mxGeometry x="1167.5" y="465" width="230" height="30" as="geometry" />
        </mxCell>
        <mxCell id="Tt5g-muoC2hDER8yVrpR-61" value="C" style="ellipse;whiteSpace=wrap;html=1;aspect=fixed;" parent="1" vertex="1">
          <mxGeometry x="1497.5" y="460" width="40" height="40" as="geometry" />
        </mxCell>
        <mxCell id="Tt5g-muoC2hDER8yVrpR-68" style="edgeStyle=orthogonalEdgeStyle;rounded=0;orthogonalLoop=1;jettySize=auto;html=1;exitX=1;exitY=0.5;exitDx=0;exitDy=0;entryX=0;entryY=0.5;entryDx=0;entryDy=0;" parent="1" source="Tt5g-muoC2hDER8yVrpR-65" target="ny9qsc9HZoNVvO1qv55G-1" edge="1">
          <mxGeometry relative="1" as="geometry">
            <mxPoint x="1189.9999999999998" y="1060" as="targetPoint" />
          </mxGeometry>
        </mxCell>
        <mxCell id="ny9qsc9HZoNVvO1qv55G-66" style="edgeStyle=orthogonalEdgeStyle;rounded=0;orthogonalLoop=1;jettySize=auto;html=1;exitX=0.5;exitY=1;exitDx=0;exitDy=0;entryX=0.5;entryY=0;entryDx=0;entryDy=0;" parent="1" source="Tt5g-muoC2hDER8yVrpR-65" target="Tt5g-muoC2hDER8yVrpR-72" edge="1">
          <mxGeometry relative="1" as="geometry" />
        </mxCell>
        <mxCell id="Tt5g-muoC2hDER8yVrpR-65" value="while login_admin == true" style="shape=hexagon;perimeter=hexagonPerimeter2;whiteSpace=wrap;html=1;fixedSize=1;fontFamily=Times New Roman;fillColor=#ffe6cc;strokeColor=#d79b00;fontSize=13;" parent="1" vertex="1">
          <mxGeometry x="1040" y="1040" width="100" height="40" as="geometry" />
        </mxCell>
        <mxCell id="Tt5g-muoC2hDER8yVrpR-78" style="edgeStyle=orthogonalEdgeStyle;rounded=0;orthogonalLoop=1;jettySize=auto;html=1;exitX=0.5;exitY=1;exitDx=0;exitDy=0;entryX=0.625;entryY=0;entryDx=0;entryDy=0;" parent="1" source="Tt5g-muoC2hDER8yVrpR-66" target="Tt5g-muoC2hDER8yVrpR-65" edge="1">
          <mxGeometry relative="1" as="geometry" />
        </mxCell>
        <mxCell id="Tt5g-muoC2hDER8yVrpR-66" value="C" style="ellipse;whiteSpace=wrap;html=1;aspect=fixed;" parent="1" vertex="1">
          <mxGeometry x="1100" y="960" width="40" height="40" as="geometry" />
        </mxCell>
        <mxCell id="Tt5g-muoC2hDER8yVrpR-75" style="edgeStyle=orthogonalEdgeStyle;rounded=0;orthogonalLoop=1;jettySize=auto;html=1;exitX=1;exitY=0.5;exitDx=0;exitDy=0;entryX=0;entryY=0.5;entryDx=0;entryDy=0;" parent="1" source="Tt5g-muoC2hDER8yVrpR-72" target="ny9qsc9HZoNVvO1qv55G-38" edge="1">
          <mxGeometry relative="1" as="geometry">
            <mxPoint x="1189.9999999999998" y="1199" as="targetPoint" />
          </mxGeometry>
        </mxCell>
        <mxCell id="ny9qsc9HZoNVvO1qv55G-67" style="edgeStyle=orthogonalEdgeStyle;rounded=0;orthogonalLoop=1;jettySize=auto;html=1;exitX=0.5;exitY=1;exitDx=0;exitDy=0;entryX=0.625;entryY=1;entryDx=0;entryDy=0;" parent="1" source="Tt5g-muoC2hDER8yVrpR-72" target="Tt5g-muoC2hDER8yVrpR-1" edge="1">
          <mxGeometry relative="1" as="geometry" />
        </mxCell>
        <mxCell id="Tt5g-muoC2hDER8yVrpR-72" value="while login_user == true" style="shape=hexagon;perimeter=hexagonPerimeter2;whiteSpace=wrap;html=1;fixedSize=1;fontFamily=Times New Roman;fillColor=#ffe6cc;strokeColor=#d79b00;fontSize=13;" parent="1" vertex="1">
          <mxGeometry x="1040" y="1210" width="100" height="40" as="geometry" />
        </mxCell>
        <mxCell id="Tt5g-muoC2hDER8yVrpR-81" style="edgeStyle=orthogonalEdgeStyle;rounded=0;orthogonalLoop=1;jettySize=auto;html=1;exitX=1;exitY=0.5;exitDx=0;exitDy=0;entryX=0;entryY=0.5;entryDx=0;entryDy=0;" parent="1" source="Tt5g-muoC2hDER8yVrpR-79" target="Tt5g-muoC2hDER8yVrpR-80" edge="1">
          <mxGeometry relative="1" as="geometry" />
        </mxCell>
        <mxCell id="Tt5g-muoC2hDER8yVrpR-84" style="edgeStyle=orthogonalEdgeStyle;rounded=0;orthogonalLoop=1;jettySize=auto;html=1;exitX=0.5;exitY=1;exitDx=0;exitDy=0;entryX=0.5;entryY=0;entryDx=0;entryDy=0;" parent="1" source="Tt5g-muoC2hDER8yVrpR-79" target="Tt5g-muoC2hDER8yVrpR-83" edge="1">
          <mxGeometry relative="1" as="geometry" />
        </mxCell>
        <mxCell id="Tt5g-muoC2hDER8yVrpR-79" value="pilihan = &quot;3&quot;" style="rhombus;whiteSpace=wrap;html=1;fontFamily=Times New Roman;fillColor=#f8cecc;strokeColor=#b85450;fontSize=13;" parent="1" vertex="1">
          <mxGeometry x="1370" y="30" width="80" height="80" as="geometry" />
        </mxCell>
        <mxCell id="Tt5g-muoC2hDER8yVrpR-82" style="edgeStyle=orthogonalEdgeStyle;rounded=0;orthogonalLoop=1;jettySize=auto;html=1;exitX=1;exitY=0.5;exitDx=0;exitDy=0;entryX=1;entryY=0.25;entryDx=0;entryDy=0;" parent="1" source="Tt5g-muoC2hDER8yVrpR-80" target="Tt5g-muoC2hDER8yVrpR-1" edge="1">
          <mxGeometry relative="1" as="geometry">
            <Array as="points">
              <mxPoint x="1640" y="70" />
              <mxPoint x="1640" y="20" />
              <mxPoint x="1110" y="20" />
              <mxPoint x="1110" y="560" />
              <mxPoint x="1012" y="560" />
            </Array>
          </mxGeometry>
        </mxCell>
        <mxCell id="Tt5g-muoC2hDER8yVrpR-80" value="Output&lt;div&gt;&quot;Pilihan tidak valid&quot;&lt;/div&gt;" style="shape=parallelogram;perimeter=parallelogramPerimeter;whiteSpace=wrap;html=1;fixedSize=1;fontFamily=Times New Roman;fillColor=#d5e8d4;strokeColor=#82b366;fontSize=13;" parent="1" vertex="1">
          <mxGeometry x="1490" y="50" width="140" height="40" as="geometry" />
        </mxCell>
        <mxCell id="Tt5g-muoC2hDER8yVrpR-83" value="D" style="ellipse;whiteSpace=wrap;html=1;aspect=fixed;" parent="1" vertex="1">
          <mxGeometry x="1390" y="130" width="40" height="40" as="geometry" />
        </mxCell>
        <mxCell id="Tt5g-muoC2hDER8yVrpR-86" style="edgeStyle=orthogonalEdgeStyle;rounded=0;orthogonalLoop=1;jettySize=auto;html=1;exitX=0;exitY=0.5;exitDx=0;exitDy=0;entryX=1;entryY=0.5;entryDx=0;entryDy=0;" parent="1" source="Tt5g-muoC2hDER8yVrpR-85" target="Tt5g-muoC2hDER8yVrpR-11" edge="1">
          <mxGeometry relative="1" as="geometry" />
        </mxCell>
        <mxCell id="Tt5g-muoC2hDER8yVrpR-85" value="D" style="ellipse;whiteSpace=wrap;html=1;aspect=fixed;" parent="1" vertex="1">
          <mxGeometry x="1105" y="1360" width="40" height="40" as="geometry" />
        </mxCell>
        <mxCell id="ny9qsc9HZoNVvO1qv55G-6" style="edgeStyle=orthogonalEdgeStyle;rounded=0;orthogonalLoop=1;jettySize=auto;html=1;exitX=1;exitY=0.5;exitDx=0;exitDy=0;entryX=0;entryY=0.5;entryDx=0;entryDy=0;" parent="1" source="ny9qsc9HZoNVvO1qv55G-1" target="ny9qsc9HZoNVvO1qv55G-2" edge="1">
          <mxGeometry relative="1" as="geometry" />
        </mxCell>
        <mxCell id="ny9qsc9HZoNVvO1qv55G-1" value="Input menu_admin" style="shape=parallelogram;perimeter=parallelogramPerimeter;whiteSpace=wrap;html=1;fixedSize=1;fontFamily=Times New Roman;fillColor=#dae8fc;strokeColor=#6c8ebf;fontSize=13;" parent="1" vertex="1">
          <mxGeometry x="1170" y="1040" width="130" height="40" as="geometry" />
        </mxCell>
        <mxCell id="ny9qsc9HZoNVvO1qv55G-10" style="edgeStyle=orthogonalEdgeStyle;rounded=0;orthogonalLoop=1;jettySize=auto;html=1;exitX=1;exitY=0.5;exitDx=0;exitDy=0;entryX=0;entryY=0.5;entryDx=0;entryDy=0;" parent="1" source="ny9qsc9HZoNVvO1qv55G-2" target="ny9qsc9HZoNVvO1qv55G-7" edge="1">
          <mxGeometry relative="1" as="geometry" />
        </mxCell>
        <mxCell id="ny9qsc9HZoNVvO1qv55G-15" style="edgeStyle=orthogonalEdgeStyle;rounded=0;orthogonalLoop=1;jettySize=auto;html=1;exitX=0.5;exitY=1;exitDx=0;exitDy=0;entryX=0.5;entryY=0;entryDx=0;entryDy=0;" parent="1" source="ny9qsc9HZoNVvO1qv55G-2" target="ny9qsc9HZoNVvO1qv55G-13" edge="1">
          <mxGeometry relative="1" as="geometry" />
        </mxCell>
        <mxCell id="ny9qsc9HZoNVvO1qv55G-2" value="menu_admin = &quot;1&quot;" style="rhombus;whiteSpace=wrap;html=1;fontFamily=Times New Roman;fillColor=#f8cecc;strokeColor=#b85450;fontSize=13;" parent="1" vertex="1">
          <mxGeometry x="1330" y="1020" width="80" height="80" as="geometry" />
        </mxCell>
        <mxCell id="ny9qsc9HZoNVvO1qv55G-11" style="edgeStyle=orthogonalEdgeStyle;rounded=0;orthogonalLoop=1;jettySize=auto;html=1;exitX=1;exitY=0.5;exitDx=0;exitDy=0;entryX=0;entryY=0.5;entryDx=0;entryDy=0;" parent="1" source="ny9qsc9HZoNVvO1qv55G-7" target="ny9qsc9HZoNVvO1qv55G-8" edge="1">
          <mxGeometry relative="1" as="geometry" />
        </mxCell>
        <mxCell id="ny9qsc9HZoNVvO1qv55G-16" style="edgeStyle=orthogonalEdgeStyle;rounded=0;orthogonalLoop=1;jettySize=auto;html=1;exitX=0.5;exitY=1;exitDx=0;exitDy=0;entryX=0.5;entryY=0;entryDx=0;entryDy=0;" parent="1" source="ny9qsc9HZoNVvO1qv55G-7" target="ny9qsc9HZoNVvO1qv55G-14" edge="1">
          <mxGeometry relative="1" as="geometry" />
        </mxCell>
        <mxCell id="ny9qsc9HZoNVvO1qv55G-7" value="menu_admin = &quot;2&quot;" style="rhombus;whiteSpace=wrap;html=1;fontFamily=Times New Roman;fillColor=#f8cecc;strokeColor=#b85450;fontSize=13;" parent="1" vertex="1">
          <mxGeometry x="1495" y="1020" width="80" height="80" as="geometry" />
        </mxCell>
        <mxCell id="ny9qsc9HZoNVvO1qv55G-12" style="edgeStyle=orthogonalEdgeStyle;rounded=0;orthogonalLoop=1;jettySize=auto;html=1;exitX=1;exitY=0.5;exitDx=0;exitDy=0;entryX=0;entryY=0.5;entryDx=0;entryDy=0;" parent="1" source="ny9qsc9HZoNVvO1qv55G-8" target="ny9qsc9HZoNVvO1qv55G-9" edge="1">
          <mxGeometry relative="1" as="geometry" />
        </mxCell>
        <mxCell id="ny9qsc9HZoNVvO1qv55G-18" style="edgeStyle=orthogonalEdgeStyle;rounded=0;orthogonalLoop=1;jettySize=auto;html=1;exitX=0.5;exitY=1;exitDx=0;exitDy=0;entryX=0.5;entryY=0;entryDx=0;entryDy=0;" parent="1" source="ny9qsc9HZoNVvO1qv55G-8" target="ny9qsc9HZoNVvO1qv55G-17" edge="1">
          <mxGeometry relative="1" as="geometry" />
        </mxCell>
        <mxCell id="ny9qsc9HZoNVvO1qv55G-8" value="menu_admin = &quot;3&quot;" style="rhombus;whiteSpace=wrap;html=1;fontFamily=Times New Roman;fillColor=#f8cecc;strokeColor=#b85450;fontSize=13;" parent="1" vertex="1">
          <mxGeometry x="1642.5" y="1020" width="80" height="80" as="geometry" />
        </mxCell>
        <mxCell id="ny9qsc9HZoNVvO1qv55G-20" style="edgeStyle=orthogonalEdgeStyle;rounded=0;orthogonalLoop=1;jettySize=auto;html=1;exitX=0.5;exitY=1;exitDx=0;exitDy=0;entryX=0.5;entryY=0;entryDx=0;entryDy=0;" parent="1" source="ny9qsc9HZoNVvO1qv55G-9" target="ny9qsc9HZoNVvO1qv55G-19" edge="1">
          <mxGeometry relative="1" as="geometry">
            <Array as="points">
              <mxPoint x="1830" y="1110" />
              <mxPoint x="1839" y="1110" />
            </Array>
          </mxGeometry>
        </mxCell>
        <mxCell id="ny9qsc9HZoNVvO1qv55G-22" style="edgeStyle=orthogonalEdgeStyle;rounded=0;orthogonalLoop=1;jettySize=auto;html=1;exitX=1;exitY=0.5;exitDx=0;exitDy=0;entryX=0;entryY=0.5;entryDx=0;entryDy=0;" parent="1" source="ny9qsc9HZoNVvO1qv55G-9" target="ny9qsc9HZoNVvO1qv55G-29" edge="1">
          <mxGeometry relative="1" as="geometry">
            <mxPoint x="1914" y="1060" as="targetPoint" />
          </mxGeometry>
        </mxCell>
        <mxCell id="ny9qsc9HZoNVvO1qv55G-9" value="menu_admin = &quot;4&quot;" style="rhombus;whiteSpace=wrap;html=1;fontFamily=Times New Roman;fillColor=#f8cecc;strokeColor=#b85450;fontSize=13;" parent="1" vertex="1">
          <mxGeometry x="1790" y="1020" width="80" height="80" as="geometry" />
        </mxCell>
        <mxCell id="ny9qsc9HZoNVvO1qv55G-23" style="edgeStyle=orthogonalEdgeStyle;rounded=0;orthogonalLoop=1;jettySize=auto;html=1;exitX=0.5;exitY=1;exitDx=0;exitDy=0;entryX=0.625;entryY=1;entryDx=0;entryDy=0;" parent="1" source="ny9qsc9HZoNVvO1qv55G-13" target="Tt5g-muoC2hDER8yVrpR-65" edge="1">
          <mxGeometry relative="1" as="geometry">
            <Array as="points">
              <mxPoint x="1361" y="1170" />
              <mxPoint x="1103" y="1170" />
            </Array>
          </mxGeometry>
        </mxCell>
        <mxCell id="ny9qsc9HZoNVvO1qv55G-13" value="PROGRAM TAMBAH KOMPONEN" style="rounded=0;whiteSpace=wrap;html=1;fontFamily=Times New Roman;fillColor=#fff2cc;strokeColor=#d6b656;fontSize=13;" parent="1" vertex="1">
          <mxGeometry x="1293" y="1120" width="135" height="40" as="geometry" />
        </mxCell>
        <mxCell id="ny9qsc9HZoNVvO1qv55G-25" style="edgeStyle=orthogonalEdgeStyle;rounded=0;orthogonalLoop=1;jettySize=auto;html=1;exitX=0.5;exitY=1;exitDx=0;exitDy=0;entryX=0.625;entryY=1;entryDx=0;entryDy=0;endArrow=none;endFill=0;" parent="1" source="ny9qsc9HZoNVvO1qv55G-14" target="Tt5g-muoC2hDER8yVrpR-65" edge="1">
          <mxGeometry relative="1" as="geometry">
            <Array as="points">
              <mxPoint x="1535" y="1170" />
              <mxPoint x="1103" y="1170" />
            </Array>
          </mxGeometry>
        </mxCell>
        <mxCell id="ny9qsc9HZoNVvO1qv55G-14" value="PROGRAM LIHAT KOMPONEN" style="rounded=0;whiteSpace=wrap;html=1;fontFamily=Times New Roman;fillColor=#fff2cc;strokeColor=#d6b656;fontSize=13;" parent="1" vertex="1">
          <mxGeometry x="1470" y="1120" width="130" height="40" as="geometry" />
        </mxCell>
        <mxCell id="ny9qsc9HZoNVvO1qv55G-26" style="edgeStyle=orthogonalEdgeStyle;rounded=0;orthogonalLoop=1;jettySize=auto;html=1;exitX=0.5;exitY=1;exitDx=0;exitDy=0;entryX=0.625;entryY=1;entryDx=0;entryDy=0;endArrow=none;endFill=0;" parent="1" source="ny9qsc9HZoNVvO1qv55G-17" target="Tt5g-muoC2hDER8yVrpR-65" edge="1">
          <mxGeometry relative="1" as="geometry">
            <Array as="points">
              <mxPoint x="1683" y="1170" />
              <mxPoint x="1103" y="1170" />
            </Array>
          </mxGeometry>
        </mxCell>
        <mxCell id="ny9qsc9HZoNVvO1qv55G-17" value="PROGRAM UBAH KOMPONEN" style="rounded=0;whiteSpace=wrap;html=1;fontFamily=Times New Roman;fillColor=#fff2cc;strokeColor=#d6b656;fontSize=13;" parent="1" vertex="1">
          <mxGeometry x="1617.5" y="1120" width="130" height="40" as="geometry" />
        </mxCell>
        <mxCell id="ny9qsc9HZoNVvO1qv55G-27" style="edgeStyle=orthogonalEdgeStyle;rounded=0;orthogonalLoop=1;jettySize=auto;html=1;exitX=0.5;exitY=1;exitDx=0;exitDy=0;entryX=0.625;entryY=1;entryDx=0;entryDy=0;endArrow=none;endFill=0;" parent="1" source="ny9qsc9HZoNVvO1qv55G-19" target="Tt5g-muoC2hDER8yVrpR-65" edge="1">
          <mxGeometry relative="1" as="geometry">
            <Array as="points">
              <mxPoint x="1839" y="1170" />
              <mxPoint x="1103" y="1170" />
            </Array>
          </mxGeometry>
        </mxCell>
        <mxCell id="ny9qsc9HZoNVvO1qv55G-19" value="PROGRAM HAPUS KOMPONEN" style="rounded=0;whiteSpace=wrap;html=1;fontFamily=Times New Roman;fillColor=#fff2cc;strokeColor=#d6b656;fontSize=13;" parent="1" vertex="1">
          <mxGeometry x="1774" y="1120" width="130" height="40" as="geometry" />
        </mxCell>
        <mxCell id="ny9qsc9HZoNVvO1qv55G-32" style="edgeStyle=orthogonalEdgeStyle;rounded=0;orthogonalLoop=1;jettySize=auto;html=1;exitX=0.5;exitY=1;exitDx=0;exitDy=0;entryX=0.5;entryY=0;entryDx=0;entryDy=0;" parent="1" source="ny9qsc9HZoNVvO1qv55G-29" target="ny9qsc9HZoNVvO1qv55G-30" edge="1">
          <mxGeometry relative="1" as="geometry" />
        </mxCell>
        <mxCell id="ny9qsc9HZoNVvO1qv55G-33" style="edgeStyle=orthogonalEdgeStyle;rounded=0;orthogonalLoop=1;jettySize=auto;html=1;exitX=1;exitY=0.5;exitDx=0;exitDy=0;entryX=0;entryY=0.5;entryDx=0;entryDy=0;" parent="1" source="ny9qsc9HZoNVvO1qv55G-29" target="ny9qsc9HZoNVvO1qv55G-34" edge="1">
          <mxGeometry relative="1" as="geometry">
            <mxPoint x="2040" y="1059.764705882353" as="targetPoint" />
          </mxGeometry>
        </mxCell>
        <mxCell id="ny9qsc9HZoNVvO1qv55G-29" value="menu_admin = &quot;5&quot;" style="rhombus;whiteSpace=wrap;html=1;fontFamily=Times New Roman;fillColor=#f8cecc;strokeColor=#b85450;fontSize=13;" parent="1" vertex="1">
          <mxGeometry x="1935" y="1020" width="80" height="80" as="geometry" />
        </mxCell>
        <mxCell id="ny9qsc9HZoNVvO1qv55G-35" style="edgeStyle=orthogonalEdgeStyle;rounded=0;orthogonalLoop=1;jettySize=auto;html=1;exitX=0.5;exitY=1;exitDx=0;exitDy=0;entryX=0.625;entryY=1;entryDx=0;entryDy=0;endArrow=none;endFill=0;" parent="1" source="ny9qsc9HZoNVvO1qv55G-30" target="Tt5g-muoC2hDER8yVrpR-65" edge="1">
          <mxGeometry relative="1" as="geometry">
            <Array as="points">
              <mxPoint x="1975" y="1170" />
              <mxPoint x="1103" y="1170" />
            </Array>
          </mxGeometry>
        </mxCell>
        <mxCell id="ny9qsc9HZoNVvO1qv55G-30" value="login_admin = false" style="rounded=0;whiteSpace=wrap;html=1;fontFamily=Times New Roman;fillColor=#fff2cc;strokeColor=#d6b656;fontSize=13;" parent="1" vertex="1">
          <mxGeometry x="1910" y="1120" width="130" height="40" as="geometry" />
        </mxCell>
        <mxCell id="ny9qsc9HZoNVvO1qv55G-36" style="edgeStyle=orthogonalEdgeStyle;rounded=0;orthogonalLoop=1;jettySize=auto;html=1;exitX=0.5;exitY=1;exitDx=0;exitDy=0;entryX=0.625;entryY=1;entryDx=0;entryDy=0;endArrow=none;endFill=0;" parent="1" source="ny9qsc9HZoNVvO1qv55G-34" target="Tt5g-muoC2hDER8yVrpR-65" edge="1">
          <mxGeometry relative="1" as="geometry">
            <mxPoint x="1189.9999999999998" y="1200" as="targetPoint" />
            <Array as="points">
              <mxPoint x="2140" y="1170" />
              <mxPoint x="1103" y="1170" />
            </Array>
          </mxGeometry>
        </mxCell>
        <mxCell id="ny9qsc9HZoNVvO1qv55G-34" value="Output&lt;div&gt;&quot;Pilihan tidak valid&quot;&lt;/div&gt;" style="shape=parallelogram;perimeter=parallelogramPerimeter;whiteSpace=wrap;html=1;fixedSize=1;fontFamily=Times New Roman;fillColor=#d5e8d4;strokeColor=#82b366;fontSize=13;" parent="1" vertex="1">
          <mxGeometry x="2070" y="1040" width="140" height="40" as="geometry" />
        </mxCell>
        <mxCell id="ny9qsc9HZoNVvO1qv55G-37" style="edgeStyle=orthogonalEdgeStyle;rounded=0;orthogonalLoop=1;jettySize=auto;html=1;exitX=1;exitY=0.5;exitDx=0;exitDy=0;entryX=0;entryY=0.5;entryDx=0;entryDy=0;" parent="1" source="ny9qsc9HZoNVvO1qv55G-38" target="ny9qsc9HZoNVvO1qv55G-41" edge="1">
          <mxGeometry relative="1" as="geometry" />
        </mxCell>
        <mxCell id="ny9qsc9HZoNVvO1qv55G-38" value="Input menu_user" style="shape=parallelogram;perimeter=parallelogramPerimeter;whiteSpace=wrap;html=1;fixedSize=1;fontFamily=Times New Roman;fillColor=#dae8fc;strokeColor=#6c8ebf;fontSize=13;" parent="1" vertex="1">
          <mxGeometry x="1180" y="1210" width="130" height="40" as="geometry" />
        </mxCell>
        <mxCell id="ny9qsc9HZoNVvO1qv55G-39" style="edgeStyle=orthogonalEdgeStyle;rounded=0;orthogonalLoop=1;jettySize=auto;html=1;exitX=1;exitY=0.5;exitDx=0;exitDy=0;entryX=0;entryY=0.5;entryDx=0;entryDy=0;" parent="1" source="ny9qsc9HZoNVvO1qv55G-41" target="ny9qsc9HZoNVvO1qv55G-44" edge="1">
          <mxGeometry relative="1" as="geometry" />
        </mxCell>
        <mxCell id="ny9qsc9HZoNVvO1qv55G-40" style="edgeStyle=orthogonalEdgeStyle;rounded=0;orthogonalLoop=1;jettySize=auto;html=1;exitX=0.5;exitY=1;exitDx=0;exitDy=0;entryX=0.5;entryY=0;entryDx=0;entryDy=0;" parent="1" source="ny9qsc9HZoNVvO1qv55G-41" target="ny9qsc9HZoNVvO1qv55G-51" edge="1">
          <mxGeometry relative="1" as="geometry" />
        </mxCell>
        <mxCell id="ny9qsc9HZoNVvO1qv55G-41" value="menu_user = &quot;1&quot;" style="rhombus;whiteSpace=wrap;html=1;fontFamily=Times New Roman;fillColor=#f8cecc;strokeColor=#b85450;fontSize=13;" parent="1" vertex="1">
          <mxGeometry x="1340" y="1190" width="80" height="80" as="geometry" />
        </mxCell>
        <mxCell id="ny9qsc9HZoNVvO1qv55G-42" style="edgeStyle=orthogonalEdgeStyle;rounded=0;orthogonalLoop=1;jettySize=auto;html=1;exitX=1;exitY=0.5;exitDx=0;exitDy=0;entryX=0;entryY=0.5;entryDx=0;entryDy=0;" parent="1" source="ny9qsc9HZoNVvO1qv55G-44" target="ny9qsc9HZoNVvO1qv55G-47" edge="1">
          <mxGeometry relative="1" as="geometry" />
        </mxCell>
        <mxCell id="ny9qsc9HZoNVvO1qv55G-43" style="edgeStyle=orthogonalEdgeStyle;rounded=0;orthogonalLoop=1;jettySize=auto;html=1;exitX=0.5;exitY=1;exitDx=0;exitDy=0;entryX=0.5;entryY=0;entryDx=0;entryDy=0;" parent="1" source="ny9qsc9HZoNVvO1qv55G-44" target="ny9qsc9HZoNVvO1qv55G-52" edge="1">
          <mxGeometry relative="1" as="geometry" />
        </mxCell>
        <mxCell id="ny9qsc9HZoNVvO1qv55G-44" value="menu_user = &quot;2&quot;" style="rhombus;whiteSpace=wrap;html=1;fontFamily=Times New Roman;fillColor=#f8cecc;strokeColor=#b85450;fontSize=13;" parent="1" vertex="1">
          <mxGeometry x="1505" y="1190" width="80" height="80" as="geometry" />
        </mxCell>
        <mxCell id="ny9qsc9HZoNVvO1qv55G-45" style="edgeStyle=orthogonalEdgeStyle;rounded=0;orthogonalLoop=1;jettySize=auto;html=1;exitX=1;exitY=0.5;exitDx=0;exitDy=0;entryX=0;entryY=0.5;entryDx=0;entryDy=0;" parent="1" source="ny9qsc9HZoNVvO1qv55G-47" target="ny9qsc9HZoNVvO1qv55G-50" edge="1">
          <mxGeometry relative="1" as="geometry" />
        </mxCell>
        <mxCell id="ny9qsc9HZoNVvO1qv55G-46" style="edgeStyle=orthogonalEdgeStyle;rounded=0;orthogonalLoop=1;jettySize=auto;html=1;exitX=0.5;exitY=1;exitDx=0;exitDy=0;entryX=0.5;entryY=0;entryDx=0;entryDy=0;" parent="1" source="ny9qsc9HZoNVvO1qv55G-47" target="ny9qsc9HZoNVvO1qv55G-53" edge="1">
          <mxGeometry relative="1" as="geometry" />
        </mxCell>
        <mxCell id="ny9qsc9HZoNVvO1qv55G-47" value="menu_user = &quot;3&quot;" style="rhombus;whiteSpace=wrap;html=1;fontFamily=Times New Roman;fillColor=#f8cecc;strokeColor=#b85450;fontSize=13;" parent="1" vertex="1">
          <mxGeometry x="1652.5" y="1190" width="80" height="80" as="geometry" />
        </mxCell>
        <mxCell id="ny9qsc9HZoNVvO1qv55G-48" style="edgeStyle=orthogonalEdgeStyle;rounded=0;orthogonalLoop=1;jettySize=auto;html=1;exitX=0.5;exitY=1;exitDx=0;exitDy=0;entryX=0.5;entryY=0;entryDx=0;entryDy=0;" parent="1" source="ny9qsc9HZoNVvO1qv55G-50" target="ny9qsc9HZoNVvO1qv55G-54" edge="1">
          <mxGeometry relative="1" as="geometry">
            <Array as="points">
              <mxPoint x="1840" y="1280" />
              <mxPoint x="1849" y="1280" />
            </Array>
          </mxGeometry>
        </mxCell>
        <mxCell id="ny9qsc9HZoNVvO1qv55G-49" style="edgeStyle=orthogonalEdgeStyle;rounded=0;orthogonalLoop=1;jettySize=auto;html=1;exitX=1;exitY=0.5;exitDx=0;exitDy=0;entryX=0;entryY=0.5;entryDx=0;entryDy=0;" parent="1" source="ny9qsc9HZoNVvO1qv55G-50" target="ny9qsc9HZoNVvO1qv55G-59" edge="1">
          <mxGeometry relative="1" as="geometry">
            <mxPoint x="1945" y="1230" as="targetPoint" />
          </mxGeometry>
        </mxCell>
        <mxCell id="ny9qsc9HZoNVvO1qv55G-50" value="menu_user = &quot;4&quot;" style="rhombus;whiteSpace=wrap;html=1;fontFamily=Times New Roman;fillColor=#f8cecc;strokeColor=#b85450;fontSize=13;" parent="1" vertex="1">
          <mxGeometry x="1800" y="1190" width="80" height="80" as="geometry" />
        </mxCell>
        <mxCell id="ny9qsc9HZoNVvO1qv55G-60" style="edgeStyle=orthogonalEdgeStyle;rounded=0;orthogonalLoop=1;jettySize=auto;html=1;exitX=0.5;exitY=1;exitDx=0;exitDy=0;entryX=0.625;entryY=1;entryDx=0;entryDy=0;" parent="1" source="ny9qsc9HZoNVvO1qv55G-51" target="Tt5g-muoC2hDER8yVrpR-72" edge="1">
          <mxGeometry relative="1" as="geometry" />
        </mxCell>
        <mxCell id="ny9qsc9HZoNVvO1qv55G-51" value="PROGRAM LIHAT KOMPONEN" style="rounded=0;whiteSpace=wrap;html=1;fontFamily=Times New Roman;fillColor=#fff2cc;strokeColor=#d6b656;fontSize=13;" parent="1" vertex="1">
          <mxGeometry x="1303" y="1290" width="135" height="40" as="geometry" />
        </mxCell>
        <mxCell id="ny9qsc9HZoNVvO1qv55G-61" style="edgeStyle=orthogonalEdgeStyle;rounded=0;orthogonalLoop=1;jettySize=auto;html=1;exitX=0.5;exitY=1;exitDx=0;exitDy=0;entryX=0.625;entryY=1;entryDx=0;entryDy=0;" parent="1" source="ny9qsc9HZoNVvO1qv55G-52" target="Tt5g-muoC2hDER8yVrpR-72" edge="1">
          <mxGeometry relative="1" as="geometry">
            <mxPoint x="1160" y="1280" as="targetPoint" />
          </mxGeometry>
        </mxCell>
        <mxCell id="ny9qsc9HZoNVvO1qv55G-52" value="PROGRAM BELI KOMPONEN" style="rounded=0;whiteSpace=wrap;html=1;fontFamily=Times New Roman;fillColor=#fff2cc;strokeColor=#d6b656;fontSize=13;" parent="1" vertex="1">
          <mxGeometry x="1480" y="1290" width="130" height="40" as="geometry" />
        </mxCell>
        <mxCell id="ny9qsc9HZoNVvO1qv55G-62" style="edgeStyle=orthogonalEdgeStyle;rounded=0;orthogonalLoop=1;jettySize=auto;html=1;exitX=0.5;exitY=1;exitDx=0;exitDy=0;entryX=0.625;entryY=1;entryDx=0;entryDy=0;" parent="1" source="ny9qsc9HZoNVvO1qv55G-53" target="Tt5g-muoC2hDER8yVrpR-72" edge="1">
          <mxGeometry relative="1" as="geometry" />
        </mxCell>
        <mxCell id="ny9qsc9HZoNVvO1qv55G-53" value="PROGRAM LIHAT RIWAYAT TRANSAKSI" style="rounded=0;whiteSpace=wrap;html=1;fontFamily=Times New Roman;fillColor=#fff2cc;strokeColor=#d6b656;fontSize=13;" parent="1" vertex="1">
          <mxGeometry x="1627.5" y="1290" width="130" height="40" as="geometry" />
        </mxCell>
        <mxCell id="ny9qsc9HZoNVvO1qv55G-63" style="edgeStyle=orthogonalEdgeStyle;rounded=0;orthogonalLoop=1;jettySize=auto;html=1;exitX=0.5;exitY=1;exitDx=0;exitDy=0;entryX=0.625;entryY=1;entryDx=0;entryDy=0;" parent="1" source="ny9qsc9HZoNVvO1qv55G-54" target="Tt5g-muoC2hDER8yVrpR-72" edge="1">
          <mxGeometry relative="1" as="geometry" />
        </mxCell>
        <mxCell id="ny9qsc9HZoNVvO1qv55G-54" value="login_user = false" style="rounded=0;whiteSpace=wrap;html=1;fontFamily=Times New Roman;fillColor=#fff2cc;strokeColor=#d6b656;fontSize=13;" parent="1" vertex="1">
          <mxGeometry x="1784" y="1290" width="130" height="40" as="geometry" />
        </mxCell>
        <mxCell id="ny9qsc9HZoNVvO1qv55G-64" style="edgeStyle=orthogonalEdgeStyle;rounded=0;orthogonalLoop=1;jettySize=auto;html=1;exitX=0.5;exitY=1;exitDx=0;exitDy=0;entryX=0.625;entryY=1;entryDx=0;entryDy=0;" parent="1" source="ny9qsc9HZoNVvO1qv55G-59" target="Tt5g-muoC2hDER8yVrpR-72" edge="1">
          <mxGeometry relative="1" as="geometry">
            <Array as="points">
              <mxPoint x="2000" y="1350" />
              <mxPoint x="1103" y="1350" />
            </Array>
          </mxGeometry>
        </mxCell>
        <mxCell id="ny9qsc9HZoNVvO1qv55G-59" value="Output&lt;div&gt;&quot;Pilihan tidak valid&quot;&lt;/div&gt;" style="shape=parallelogram;perimeter=parallelogramPerimeter;whiteSpace=wrap;html=1;fixedSize=1;fontFamily=Times New Roman;fillColor=#d5e8d4;strokeColor=#82b366;fontSize=13;" parent="1" vertex="1">
          <mxGeometry x="1930" y="1210" width="140" height="40" as="geometry" />
        </mxCell>
        <mxCell id="ny9qsc9HZoNVvO1qv55G-73" value="True" style="edgeLabel;html=1;align=center;verticalAlign=middle;resizable=0;points=[];" parent="1" vertex="1" connectable="0">
          <mxGeometry x="1428" y="120" as="geometry" />
        </mxCell>
        <mxCell id="ny9qsc9HZoNVvO1qv55G-74" value="False" style="edgeLabel;html=1;align=center;verticalAlign=middle;resizable=0;points=[];" parent="1" vertex="1" connectable="0">
          <mxGeometry x="1270" y="310" as="geometry">
            <mxPoint x="-9" y="-7" as="offset" />
          </mxGeometry>
        </mxCell>
        <mxCell id="ny9qsc9HZoNVvO1qv55G-75" value="True" style="edgeLabel;html=1;align=center;verticalAlign=middle;resizable=0;points=[];" parent="1" vertex="1" connectable="0">
          <mxGeometry x="1345" y="260" as="geometry" />
        </mxCell>
        <mxCell id="ny9qsc9HZoNVvO1qv55G-76" value="False" style="edgeLabel;html=1;align=center;verticalAlign=middle;resizable=0;points=[];" parent="1" vertex="1" connectable="0">
          <mxGeometry x="1350" y="320" as="geometry" />
        </mxCell>
        <mxCell id="ny9qsc9HZoNVvO1qv55G-77" value="True" style="edgeLabel;html=1;align=center;verticalAlign=middle;resizable=0;points=[];" parent="1" vertex="1" connectable="0">
          <mxGeometry x="1460" y="250" as="geometry" />
        </mxCell>
        <mxCell id="ny9qsc9HZoNVvO1qv55G-78" value="True" style="edgeLabel;html=1;align=center;verticalAlign=middle;resizable=0;points=[];" parent="1" vertex="1" connectable="0">
          <mxGeometry x="1332.5" y="371" as="geometry" />
        </mxCell>
        <mxCell id="ny9qsc9HZoNVvO1qv55G-79" value="False" style="edgeLabel;html=1;align=center;verticalAlign=middle;resizable=0;points=[];" parent="1" vertex="1" connectable="0">
          <mxGeometry x="1270" y="451" as="geometry">
            <mxPoint x="-9" y="-7" as="offset" />
          </mxGeometry>
        </mxCell>
        <mxCell id="ny9qsc9HZoNVvO1qv55G-80" value="True" style="edgeLabel;html=1;align=center;verticalAlign=middle;resizable=0;points=[];" parent="1" vertex="1" connectable="0">
          <mxGeometry x="1282.5" y="740" as="geometry" />
        </mxCell>
        <mxCell id="ny9qsc9HZoNVvO1qv55G-81" value="True" style="edgeLabel;html=1;align=center;verticalAlign=middle;resizable=0;points=[];" parent="1" vertex="1" connectable="0">
          <mxGeometry x="1332.5" y="860" as="geometry" />
        </mxCell>
        <mxCell id="ny9qsc9HZoNVvO1qv55G-82" value="True" style="edgeLabel;html=1;align=center;verticalAlign=middle;resizable=0;points=[];" parent="1" vertex="1" connectable="0">
          <mxGeometry x="1692.5" y="850" as="geometry" />
        </mxCell>
        <mxCell id="ny9qsc9HZoNVvO1qv55G-83" value="True" style="edgeLabel;html=1;align=center;verticalAlign=middle;resizable=0;points=[];" parent="1" vertex="1" connectable="0">
          <mxGeometry x="1320" y="1100" as="geometry" />
        </mxCell>
        <mxCell id="ny9qsc9HZoNVvO1qv55G-84" value="True" style="edgeLabel;html=1;align=center;verticalAlign=middle;resizable=0;points=[];" parent="1" vertex="1" connectable="0">
          <mxGeometry x="1510" y="1100" as="geometry" />
        </mxCell>
        <mxCell id="ny9qsc9HZoNVvO1qv55G-85" value="True" style="edgeLabel;html=1;align=center;verticalAlign=middle;resizable=0;points=[];" parent="1" vertex="1" connectable="0">
          <mxGeometry x="1660" y="1100" as="geometry" />
        </mxCell>
        <mxCell id="ny9qsc9HZoNVvO1qv55G-86" value="True" style="edgeLabel;html=1;align=center;verticalAlign=middle;resizable=0;points=[];" parent="1" vertex="1" connectable="0">
          <mxGeometry x="1810" y="1100" as="geometry" />
        </mxCell>
        <mxCell id="ny9qsc9HZoNVvO1qv55G-87" value="True" style="edgeLabel;html=1;align=center;verticalAlign=middle;resizable=0;points=[];" parent="1" vertex="1" connectable="0">
          <mxGeometry x="1950" y="1090" as="geometry" />
        </mxCell>
        <mxCell id="ny9qsc9HZoNVvO1qv55G-88" value="True" style="edgeLabel;html=1;align=center;verticalAlign=middle;resizable=0;points=[];" parent="1" vertex="1" connectable="0">
          <mxGeometry x="1810" y="1270" as="geometry" />
        </mxCell>
        <mxCell id="ny9qsc9HZoNVvO1qv55G-89" value="True" style="edgeLabel;html=1;align=center;verticalAlign=middle;resizable=0;points=[];" parent="1" vertex="1" connectable="0">
          <mxGeometry x="1670" y="1270" as="geometry" />
        </mxCell>
        <mxCell id="ny9qsc9HZoNVvO1qv55G-90" value="True" style="edgeLabel;html=1;align=center;verticalAlign=middle;resizable=0;points=[];" parent="1" vertex="1" connectable="0">
          <mxGeometry x="1530" y="1270" as="geometry" />
        </mxCell>
        <mxCell id="ny9qsc9HZoNVvO1qv55G-91" value="True" style="edgeLabel;html=1;align=center;verticalAlign=middle;resizable=0;points=[];" parent="1" vertex="1" connectable="0">
          <mxGeometry x="1340" y="1270" as="geometry" />
        </mxCell>
        <mxCell id="ny9qsc9HZoNVvO1qv55G-92" value="False" style="edgeLabel;html=1;align=center;verticalAlign=middle;resizable=0;points=[];" parent="1" vertex="1" connectable="0">
          <mxGeometry x="1330" y="670" as="geometry">
            <mxPoint x="9" y="8" as="offset" />
          </mxGeometry>
        </mxCell>
        <mxCell id="ny9qsc9HZoNVvO1qv55G-93" value="False" style="edgeLabel;html=1;align=center;verticalAlign=middle;resizable=0;points=[];" parent="1" vertex="1" connectable="0">
          <mxGeometry x="1600" y="920" as="geometry" />
        </mxCell>
        <mxCell id="ny9qsc9HZoNVvO1qv55G-94" value="False" style="edgeLabel;html=1;align=center;verticalAlign=middle;resizable=0;points=[];" parent="1" vertex="1" connectable="0">
          <mxGeometry x="1440" y="1040" as="geometry" />
        </mxCell>
        <mxCell id="ny9qsc9HZoNVvO1qv55G-95" value="False" style="edgeLabel;html=1;align=center;verticalAlign=middle;resizable=0;points=[];" parent="1" vertex="1" connectable="0">
          <mxGeometry x="1600" y="1040" as="geometry" />
        </mxCell>
        <mxCell id="ny9qsc9HZoNVvO1qv55G-96" value="False" style="edgeLabel;html=1;align=center;verticalAlign=middle;resizable=0;points=[];" parent="1" vertex="1" connectable="0">
          <mxGeometry x="1740" y="1040" as="geometry" />
        </mxCell>
        <mxCell id="ny9qsc9HZoNVvO1qv55G-97" value="False" style="edgeLabel;html=1;align=center;verticalAlign=middle;resizable=0;points=[];" parent="1" vertex="1" connectable="0">
          <mxGeometry x="1910" y="1040" as="geometry" />
        </mxCell>
        <mxCell id="ny9qsc9HZoNVvO1qv55G-98" value="False" style="edgeLabel;html=1;align=center;verticalAlign=middle;resizable=0;points=[];" parent="1" vertex="1" connectable="0">
          <mxGeometry x="2030" y="1040" as="geometry" />
        </mxCell>
        <mxCell id="ny9qsc9HZoNVvO1qv55G-99" value="False" style="edgeLabel;html=1;align=center;verticalAlign=middle;resizable=0;points=[];" parent="1" vertex="1" connectable="0">
          <mxGeometry x="1900" y="1210" as="geometry" />
        </mxCell>
        <mxCell id="ny9qsc9HZoNVvO1qv55G-100" value="False" style="edgeLabel;html=1;align=center;verticalAlign=middle;resizable=0;points=[];" parent="1" vertex="1" connectable="0">
          <mxGeometry x="1760" y="1220" as="geometry" />
        </mxCell>
        <mxCell id="ny9qsc9HZoNVvO1qv55G-101" value="False" style="edgeLabel;html=1;align=center;verticalAlign=middle;resizable=0;points=[];" parent="1" vertex="1" connectable="0">
          <mxGeometry x="1610" y="1220" as="geometry" />
        </mxCell>
        <mxCell id="ny9qsc9HZoNVvO1qv55G-102" value="False" style="edgeLabel;html=1;align=center;verticalAlign=middle;resizable=0;points=[];" parent="1" vertex="1" connectable="0">
          <mxGeometry x="1460" y="1230" as="geometry" />
        </mxCell>
        <mxCell id="ny9qsc9HZoNVvO1qv55G-103" value="False" style="edgeLabel;html=1;align=center;verticalAlign=middle;resizable=0;points=[];" parent="1" vertex="1" connectable="0">
          <mxGeometry x="1020" y="1270" as="geometry" />
        </mxCell>
        <mxCell id="ny9qsc9HZoNVvO1qv55G-104" value="False" style="edgeLabel;html=1;align=center;verticalAlign=middle;resizable=0;points=[];" parent="1" vertex="1" connectable="0">
          <mxGeometry x="1080" y="1150" as="geometry" />
        </mxCell>
        <mxCell id="ny9qsc9HZoNVvO1qv55G-105" value="True" style="edgeLabel;html=1;align=center;verticalAlign=middle;resizable=0;points=[];" parent="1" vertex="1" connectable="0">
          <mxGeometry x="1160" y="1060" as="geometry" />
        </mxCell>
        <mxCell id="ny9qsc9HZoNVvO1qv55G-106" value="True" style="edgeLabel;html=1;align=center;verticalAlign=middle;resizable=0;points=[];" parent="1" vertex="1" connectable="0">
          <mxGeometry x="1160" y="1220" as="geometry" />
        </mxCell>
        <mxCell id="1gdPhKEpt5hJLUV513rt-1" value="E" style="ellipse;whiteSpace=wrap;html=1;aspect=fixed;" vertex="1" parent="1">
          <mxGeometry x="1265" y="990" width="40" height="40" as="geometry" />
        </mxCell>
        <mxCell id="1gdPhKEpt5hJLUV513rt-3" value="False" style="edgeLabel;html=1;align=center;verticalAlign=middle;resizable=0;points=[];" vertex="1" connectable="0" parent="1">
          <mxGeometry x="1251" y="940" as="geometry">
            <mxPoint x="9" y="8" as="offset" />
          </mxGeometry>
        </mxCell>
        <mxCell id="1gdPhKEpt5hJLUV513rt-6" style="edgeStyle=orthogonalEdgeStyle;rounded=0;orthogonalLoop=1;jettySize=auto;html=1;exitX=1;exitY=0.5;exitDx=0;exitDy=0;entryX=0;entryY=0.5;entryDx=0;entryDy=0;" edge="1" parent="1" source="1gdPhKEpt5hJLUV513rt-4" target="1gdPhKEpt5hJLUV513rt-5">
          <mxGeometry relative="1" as="geometry" />
        </mxCell>
        <mxCell id="1gdPhKEpt5hJLUV513rt-4" value="E" style="ellipse;whiteSpace=wrap;html=1;aspect=fixed;" vertex="1" parent="1">
          <mxGeometry x="1585" y="160" width="40" height="40" as="geometry" />
        </mxCell>
        <mxCell id="1gdPhKEpt5hJLUV513rt-8" style="edgeStyle=orthogonalEdgeStyle;rounded=0;orthogonalLoop=1;jettySize=auto;html=1;exitX=1;exitY=0.5;exitDx=0;exitDy=0;entryX=0;entryY=0.5;entryDx=0;entryDy=0;" edge="1" parent="1" source="1gdPhKEpt5hJLUV513rt-5" target="1gdPhKEpt5hJLUV513rt-7">
          <mxGeometry relative="1" as="geometry" />
        </mxCell>
        <mxCell id="1gdPhKEpt5hJLUV513rt-14" style="edgeStyle=orthogonalEdgeStyle;rounded=0;orthogonalLoop=1;jettySize=auto;html=1;exitX=0.5;exitY=1;exitDx=0;exitDy=0;entryX=0.5;entryY=0;entryDx=0;entryDy=0;" edge="1" parent="1" source="1gdPhKEpt5hJLUV513rt-5" target="1gdPhKEpt5hJLUV513rt-15">
          <mxGeometry relative="1" as="geometry">
            <mxPoint x="1690.0526315789475" y="250" as="targetPoint" />
          </mxGeometry>
        </mxCell>
        <mxCell id="1gdPhKEpt5hJLUV513rt-5" value="pilih_login = &quot;2&quot;" style="rhombus;whiteSpace=wrap;html=1;fontFamily=Times New Roman;fillColor=#f8cecc;strokeColor=#b85450;fontSize=13;" vertex="1" parent="1">
          <mxGeometry x="1650" y="140" width="80" height="80" as="geometry" />
        </mxCell>
        <mxCell id="1gdPhKEpt5hJLUV513rt-13" style="edgeStyle=orthogonalEdgeStyle;rounded=0;orthogonalLoop=1;jettySize=auto;html=1;exitX=1;exitY=0.5;exitDx=0;exitDy=0;entryX=0;entryY=0.5;entryDx=0;entryDy=0;" edge="1" parent="1" source="1gdPhKEpt5hJLUV513rt-7" target="1gdPhKEpt5hJLUV513rt-12">
          <mxGeometry relative="1" as="geometry" />
        </mxCell>
        <mxCell id="1gdPhKEpt5hJLUV513rt-22" style="edgeStyle=orthogonalEdgeStyle;rounded=0;orthogonalLoop=1;jettySize=auto;html=1;exitX=0.5;exitY=1;exitDx=0;exitDy=0;entryX=0.5;entryY=0;entryDx=0;entryDy=0;" edge="1" parent="1" source="1gdPhKEpt5hJLUV513rt-7" target="1gdPhKEpt5hJLUV513rt-23">
          <mxGeometry relative="1" as="geometry">
            <mxPoint x="1800" y="250" as="targetPoint" />
          </mxGeometry>
        </mxCell>
        <mxCell id="1gdPhKEpt5hJLUV513rt-7" value="banyak akun_user == 0" style="rhombus;whiteSpace=wrap;html=1;fontFamily=Times New Roman;fillColor=#f8cecc;strokeColor=#b85450;fontSize=13;" vertex="1" parent="1">
          <mxGeometry x="1760" y="140" width="80" height="80" as="geometry" />
        </mxCell>
        <mxCell id="1gdPhKEpt5hJLUV513rt-9" value="True" style="edgeLabel;html=1;align=center;verticalAlign=middle;resizable=0;points=[];" vertex="1" connectable="0" parent="1">
          <mxGeometry x="1744" y="170" as="geometry" />
        </mxCell>
        <mxCell id="1gdPhKEpt5hJLUV513rt-10" value="True" style="edgeLabel;html=1;align=center;verticalAlign=middle;resizable=0;points=[];" vertex="1" connectable="0" parent="1">
          <mxGeometry x="1860" y="170" as="geometry" />
        </mxCell>
        <mxCell id="1gdPhKEpt5hJLUV513rt-17" style="edgeStyle=orthogonalEdgeStyle;rounded=0;orthogonalLoop=1;jettySize=auto;html=1;exitX=1;exitY=0.5;exitDx=0;exitDy=0;entryX=0;entryY=0.5;entryDx=0;entryDy=0;" edge="1" parent="1" source="1gdPhKEpt5hJLUV513rt-12" target="1gdPhKEpt5hJLUV513rt-16">
          <mxGeometry relative="1" as="geometry" />
        </mxCell>
        <mxCell id="1gdPhKEpt5hJLUV513rt-12" value="Output&lt;div&gt;&quot;Belum ada akun user&quot;&lt;/div&gt;" style="shape=parallelogram;perimeter=parallelogramPerimeter;whiteSpace=wrap;html=1;fixedSize=1;fontFamily=Times New Roman;fillColor=#d5e8d4;strokeColor=#82b366;fontSize=13;" vertex="1" parent="1">
          <mxGeometry x="1870" y="160" width="140" height="40" as="geometry" />
        </mxCell>
        <mxCell id="1gdPhKEpt5hJLUV513rt-65" style="edgeStyle=orthogonalEdgeStyle;rounded=0;orthogonalLoop=1;jettySize=auto;html=1;exitX=1;exitY=0.5;exitDx=0;exitDy=0;entryX=0;entryY=0.5;entryDx=0;entryDy=0;" edge="1" parent="1" source="1gdPhKEpt5hJLUV513rt-15" target="1gdPhKEpt5hJLUV513rt-64">
          <mxGeometry relative="1" as="geometry" />
        </mxCell>
        <mxCell id="1gdPhKEpt5hJLUV513rt-70" style="edgeStyle=orthogonalEdgeStyle;rounded=0;orthogonalLoop=1;jettySize=auto;html=1;exitX=0.5;exitY=1;exitDx=0;exitDy=0;entryX=0.5;entryY=0;entryDx=0;entryDy=0;" edge="1" parent="1" source="1gdPhKEpt5hJLUV513rt-15" target="1gdPhKEpt5hJLUV513rt-72">
          <mxGeometry relative="1" as="geometry">
            <mxPoint x="1690" y="729.9999999999998" as="targetPoint" />
          </mxGeometry>
        </mxCell>
        <mxCell id="1gdPhKEpt5hJLUV513rt-15" value="pilih_login = &quot;3&quot;" style="rhombus;whiteSpace=wrap;html=1;fontFamily=Times New Roman;fillColor=#f8cecc;strokeColor=#b85450;fontSize=13;" vertex="1" parent="1">
          <mxGeometry x="1650" y="580" width="80" height="80" as="geometry" />
        </mxCell>
        <mxCell id="1gdPhKEpt5hJLUV513rt-16" value="F" style="ellipse;whiteSpace=wrap;html=1;aspect=fixed;" vertex="1" parent="1">
          <mxGeometry x="2040" y="160" width="40" height="40" as="geometry" />
        </mxCell>
        <mxCell id="1gdPhKEpt5hJLUV513rt-18" value="F" style="ellipse;whiteSpace=wrap;html=1;aspect=fixed;" vertex="1" parent="1">
          <mxGeometry x="990" y="660" width="40" height="40" as="geometry" />
        </mxCell>
        <mxCell id="1gdPhKEpt5hJLUV513rt-21" style="edgeStyle=orthogonalEdgeStyle;rounded=0;orthogonalLoop=1;jettySize=auto;html=1;exitX=0.5;exitY=0;exitDx=0;exitDy=0;entryX=0.74;entryY=1.025;entryDx=0;entryDy=0;entryPerimeter=0;" edge="1" parent="1" source="1gdPhKEpt5hJLUV513rt-18" target="Tt5g-muoC2hDER8yVrpR-1">
          <mxGeometry relative="1" as="geometry" />
        </mxCell>
        <mxCell id="1gdPhKEpt5hJLUV513rt-29" style="edgeStyle=orthogonalEdgeStyle;rounded=0;orthogonalLoop=1;jettySize=auto;html=1;exitX=0.5;exitY=1;exitDx=0;exitDy=0;entryX=0.5;entryY=0;entryDx=0;entryDy=0;" edge="1" parent="1" source="1gdPhKEpt5hJLUV513rt-23" target="1gdPhKEpt5hJLUV513rt-28">
          <mxGeometry relative="1" as="geometry" />
        </mxCell>
        <mxCell id="1gdPhKEpt5hJLUV513rt-23" value="Input username_baru, password_baru" style="shape=parallelogram;perimeter=parallelogramPerimeter;whiteSpace=wrap;html=1;fixedSize=1;fontFamily=Times New Roman;fillColor=#dae8fc;strokeColor=#6c8ebf;fontSize=13;" vertex="1" parent="1">
          <mxGeometry x="1737.5" y="250" width="130" height="40" as="geometry" />
        </mxCell>
        <mxCell id="1gdPhKEpt5hJLUV513rt-24" value="False" style="edgeLabel;html=1;align=center;verticalAlign=middle;resizable=0;points=[];" vertex="1" connectable="0" parent="1">
          <mxGeometry x="1800" y="230" as="geometry" />
        </mxCell>
        <mxCell id="1gdPhKEpt5hJLUV513rt-31" style="edgeStyle=orthogonalEdgeStyle;rounded=0;orthogonalLoop=1;jettySize=auto;html=1;exitX=0.5;exitY=1;exitDx=0;exitDy=0;entryX=0.5;entryY=0;entryDx=0;entryDy=0;" edge="1" parent="1" source="1gdPhKEpt5hJLUV513rt-28" target="1gdPhKEpt5hJLUV513rt-30">
          <mxGeometry relative="1" as="geometry" />
        </mxCell>
        <mxCell id="1gdPhKEpt5hJLUV513rt-28" value="ditemukan = false" style="rounded=0;whiteSpace=wrap;html=1;fontFamily=Times New Roman;fillColor=#fff2cc;strokeColor=#d6b656;fontSize=13;" vertex="1" parent="1">
          <mxGeometry x="1755" y="310" width="95" height="30" as="geometry" />
        </mxCell>
        <mxCell id="1gdPhKEpt5hJLUV513rt-33" style="edgeStyle=orthogonalEdgeStyle;rounded=0;orthogonalLoop=1;jettySize=auto;html=1;exitX=1;exitY=0.5;exitDx=0;exitDy=0;entryX=0;entryY=0.5;entryDx=0;entryDy=0;" edge="1" parent="1" source="1gdPhKEpt5hJLUV513rt-30" target="1gdPhKEpt5hJLUV513rt-32">
          <mxGeometry relative="1" as="geometry" />
        </mxCell>
        <mxCell id="1gdPhKEpt5hJLUV513rt-44" style="edgeStyle=orthogonalEdgeStyle;rounded=0;orthogonalLoop=1;jettySize=auto;html=1;exitX=0.5;exitY=1;exitDx=0;exitDy=0;entryX=0.5;entryY=0;entryDx=0;entryDy=0;" edge="1" parent="1" source="1gdPhKEpt5hJLUV513rt-30" target="1gdPhKEpt5hJLUV513rt-49">
          <mxGeometry relative="1" as="geometry">
            <mxPoint x="1802.913043478261" y="470.0000000000001" as="targetPoint" />
          </mxGeometry>
        </mxCell>
        <mxCell id="1gdPhKEpt5hJLUV513rt-30" value="for user in akun_user" style="shape=hexagon;perimeter=hexagonPerimeter2;whiteSpace=wrap;html=1;fixedSize=1;fontFamily=Times New Roman;fillColor=#ffe6cc;strokeColor=#d79b00;fontSize=13;" vertex="1" parent="1">
          <mxGeometry x="1752.5" y="360" width="100" height="40" as="geometry" />
        </mxCell>
        <mxCell id="1gdPhKEpt5hJLUV513rt-37" style="edgeStyle=orthogonalEdgeStyle;rounded=0;orthogonalLoop=1;jettySize=auto;html=1;exitX=1;exitY=0.5;exitDx=0;exitDy=0;entryX=0;entryY=0.5;entryDx=0;entryDy=0;" edge="1" parent="1" source="1gdPhKEpt5hJLUV513rt-32" target="1gdPhKEpt5hJLUV513rt-34">
          <mxGeometry relative="1" as="geometry" />
        </mxCell>
        <mxCell id="1gdPhKEpt5hJLUV513rt-42" style="edgeStyle=orthogonalEdgeStyle;rounded=0;orthogonalLoop=1;jettySize=auto;html=1;exitX=0.5;exitY=1;exitDx=0;exitDy=0;entryX=0.625;entryY=1;entryDx=0;entryDy=0;" edge="1" parent="1" source="1gdPhKEpt5hJLUV513rt-32" target="1gdPhKEpt5hJLUV513rt-30">
          <mxGeometry relative="1" as="geometry">
            <mxPoint x="1955.0869565217392" y="460.0000000000001" as="targetPoint" />
          </mxGeometry>
        </mxCell>
        <mxCell id="1gdPhKEpt5hJLUV513rt-32" value="username == user[0] &amp;amp;&amp;amp; password == user[1]" style="rhombus;whiteSpace=wrap;html=1;fontFamily=Times New Roman;fillColor=#f8cecc;strokeColor=#b85450;fontSize=13;" vertex="1" parent="1">
          <mxGeometry x="1870" y="340" width="170" height="80" as="geometry" />
        </mxCell>
        <mxCell id="1gdPhKEpt5hJLUV513rt-38" style="edgeStyle=orthogonalEdgeStyle;rounded=0;orthogonalLoop=1;jettySize=auto;html=1;exitX=0.5;exitY=1;exitDx=0;exitDy=0;entryX=0.5;entryY=0;entryDx=0;entryDy=0;" edge="1" parent="1" source="1gdPhKEpt5hJLUV513rt-34" target="1gdPhKEpt5hJLUV513rt-36">
          <mxGeometry relative="1" as="geometry" />
        </mxCell>
        <mxCell id="1gdPhKEpt5hJLUV513rt-34" value="ditemukan = true" style="rounded=0;whiteSpace=wrap;html=1;fontFamily=Times New Roman;fillColor=#fff2cc;strokeColor=#d6b656;fontSize=13;" vertex="1" parent="1">
          <mxGeometry x="2080" y="365" width="95" height="30" as="geometry" />
        </mxCell>
        <mxCell id="1gdPhKEpt5hJLUV513rt-40" style="edgeStyle=orthogonalEdgeStyle;rounded=0;orthogonalLoop=1;jettySize=auto;html=1;exitX=0.5;exitY=1;exitDx=0;exitDy=0;entryX=0.5;entryY=0;entryDx=0;entryDy=0;" edge="1" parent="1" source="1gdPhKEpt5hJLUV513rt-35" target="1gdPhKEpt5hJLUV513rt-41">
          <mxGeometry relative="1" as="geometry">
            <mxPoint x="2127.2608695652175" y="510.0000000000001" as="targetPoint" />
          </mxGeometry>
        </mxCell>
        <mxCell id="1gdPhKEpt5hJLUV513rt-35" value="nama_user = username" style="rounded=0;whiteSpace=wrap;html=1;fontFamily=Times New Roman;fillColor=#fff2cc;strokeColor=#d6b656;fontSize=13;" vertex="1" parent="1">
          <mxGeometry x="2080" y="460" width="95" height="30" as="geometry" />
        </mxCell>
        <mxCell id="1gdPhKEpt5hJLUV513rt-39" style="edgeStyle=orthogonalEdgeStyle;rounded=0;orthogonalLoop=1;jettySize=auto;html=1;exitX=0.5;exitY=1;exitDx=0;exitDy=0;entryX=0.5;entryY=0;entryDx=0;entryDy=0;" edge="1" parent="1" source="1gdPhKEpt5hJLUV513rt-36" target="1gdPhKEpt5hJLUV513rt-35">
          <mxGeometry relative="1" as="geometry" />
        </mxCell>
        <mxCell id="1gdPhKEpt5hJLUV513rt-36" value="login_user = true" style="rounded=0;whiteSpace=wrap;html=1;fontFamily=Times New Roman;fillColor=#fff2cc;strokeColor=#d6b656;fontSize=13;" vertex="1" parent="1">
          <mxGeometry x="2080" y="411" width="95" height="30" as="geometry" />
        </mxCell>
        <mxCell id="1gdPhKEpt5hJLUV513rt-41" value="G" style="ellipse;whiteSpace=wrap;html=1;aspect=fixed;" vertex="1" parent="1">
          <mxGeometry x="2107.5" y="510" width="40" height="40" as="geometry" />
        </mxCell>
        <mxCell id="1gdPhKEpt5hJLUV513rt-43" value="False" style="edgeLabel;html=1;align=center;verticalAlign=middle;resizable=0;points=[];" vertex="1" connectable="0" parent="1">
          <mxGeometry x="1890" y="431" as="geometry" />
        </mxCell>
        <mxCell id="1gdPhKEpt5hJLUV513rt-45" value="False" style="edgeLabel;html=1;align=center;verticalAlign=middle;resizable=0;points=[];" vertex="1" connectable="0" parent="1">
          <mxGeometry x="1780" y="420" as="geometry" />
        </mxCell>
        <mxCell id="1gdPhKEpt5hJLUV513rt-46" value="True" style="edgeLabel;html=1;align=center;verticalAlign=middle;resizable=0;points=[];" vertex="1" connectable="0" parent="1">
          <mxGeometry x="1860" y="360" as="geometry" />
        </mxCell>
        <mxCell id="1gdPhKEpt5hJLUV513rt-47" value="True" style="edgeLabel;html=1;align=center;verticalAlign=middle;resizable=0;points=[];" vertex="1" connectable="0" parent="1">
          <mxGeometry x="2060" y="360" as="geometry" />
        </mxCell>
        <mxCell id="1gdPhKEpt5hJLUV513rt-52" style="edgeStyle=orthogonalEdgeStyle;rounded=0;orthogonalLoop=1;jettySize=auto;html=1;exitX=1;exitY=0.5;exitDx=0;exitDy=0;entryX=0;entryY=0.5;entryDx=0;entryDy=0;" edge="1" parent="1" source="1gdPhKEpt5hJLUV513rt-49" target="1gdPhKEpt5hJLUV513rt-51">
          <mxGeometry relative="1" as="geometry" />
        </mxCell>
        <mxCell id="1gdPhKEpt5hJLUV513rt-61" style="edgeStyle=orthogonalEdgeStyle;rounded=0;orthogonalLoop=1;jettySize=auto;html=1;exitX=0.5;exitY=1;exitDx=0;exitDy=0;entryX=0.5;entryY=0;entryDx=0;entryDy=0;" edge="1" parent="1" source="1gdPhKEpt5hJLUV513rt-49" target="1gdPhKEpt5hJLUV513rt-60">
          <mxGeometry relative="1" as="geometry" />
        </mxCell>
        <mxCell id="1gdPhKEpt5hJLUV513rt-49" value="ditemukan == false" style="rhombus;whiteSpace=wrap;html=1;fontFamily=Times New Roman;fillColor=#f8cecc;strokeColor=#b85450;fontSize=13;" vertex="1" parent="1">
          <mxGeometry x="1762.5" y="451" width="80" height="80" as="geometry" />
        </mxCell>
        <mxCell id="1gdPhKEpt5hJLUV513rt-50" value="True" style="edgeLabel;html=1;align=center;verticalAlign=middle;resizable=0;points=[];" vertex="1" connectable="0" parent="1">
          <mxGeometry x="1860" y="475" as="geometry" />
        </mxCell>
        <mxCell id="1gdPhKEpt5hJLUV513rt-57" style="edgeStyle=orthogonalEdgeStyle;rounded=0;orthogonalLoop=1;jettySize=auto;html=1;exitX=1;exitY=0.5;exitDx=0;exitDy=0;entryX=0;entryY=0.5;entryDx=0;entryDy=0;" edge="1" parent="1" source="1gdPhKEpt5hJLUV513rt-51" target="1gdPhKEpt5hJLUV513rt-56">
          <mxGeometry relative="1" as="geometry" />
        </mxCell>
        <mxCell id="1gdPhKEpt5hJLUV513rt-51" value="Output&lt;div&gt;&quot;Username atau password salah&quot;&lt;/div&gt;" style="shape=parallelogram;perimeter=parallelogramPerimeter;whiteSpace=wrap;html=1;fixedSize=1;fontFamily=Times New Roman;fillColor=#d5e8d4;strokeColor=#82b366;fontSize=13;" vertex="1" parent="1">
          <mxGeometry x="1867.5" y="470" width="140" height="40" as="geometry" />
        </mxCell>
        <mxCell id="1gdPhKEpt5hJLUV513rt-55" style="edgeStyle=orthogonalEdgeStyle;rounded=0;orthogonalLoop=1;jettySize=auto;html=1;exitX=0.5;exitY=1;exitDx=0;exitDy=0;entryX=0.375;entryY=0;entryDx=0;entryDy=0;" edge="1" parent="1" source="1gdPhKEpt5hJLUV513rt-54" target="Tt5g-muoC2hDER8yVrpR-65">
          <mxGeometry relative="1" as="geometry" />
        </mxCell>
        <mxCell id="1gdPhKEpt5hJLUV513rt-54" value="G" style="ellipse;whiteSpace=wrap;html=1;aspect=fixed;" vertex="1" parent="1">
          <mxGeometry x="1040" y="960" width="40" height="40" as="geometry" />
        </mxCell>
        <mxCell id="1gdPhKEpt5hJLUV513rt-56" value="H" style="ellipse;whiteSpace=wrap;html=1;aspect=fixed;" vertex="1" parent="1">
          <mxGeometry x="2027" y="470" width="40" height="40" as="geometry" />
        </mxCell>
        <mxCell id="1gdPhKEpt5hJLUV513rt-59" style="edgeStyle=orthogonalEdgeStyle;rounded=0;orthogonalLoop=1;jettySize=auto;html=1;exitX=0.5;exitY=0;exitDx=0;exitDy=0;entryX=0.375;entryY=1;entryDx=0;entryDy=0;" edge="1" parent="1" source="1gdPhKEpt5hJLUV513rt-58" target="Tt5g-muoC2hDER8yVrpR-1">
          <mxGeometry relative="1" as="geometry" />
        </mxCell>
        <mxCell id="1gdPhKEpt5hJLUV513rt-58" value="H" style="ellipse;whiteSpace=wrap;html=1;aspect=fixed;" vertex="1" parent="1">
          <mxGeometry x="920" y="660" width="40" height="40" as="geometry" />
        </mxCell>
        <mxCell id="1gdPhKEpt5hJLUV513rt-60" value="I" style="ellipse;whiteSpace=wrap;html=1;aspect=fixed;" vertex="1" parent="1">
          <mxGeometry x="1782.5" y="550" width="40" height="40" as="geometry" />
        </mxCell>
        <mxCell id="1gdPhKEpt5hJLUV513rt-63" style="edgeStyle=orthogonalEdgeStyle;rounded=0;orthogonalLoop=1;jettySize=auto;html=1;exitX=0.5;exitY=1;exitDx=0;exitDy=0;entryX=0.5;entryY=0;entryDx=0;entryDy=0;" edge="1" parent="1" source="1gdPhKEpt5hJLUV513rt-62" target="Tt5g-muoC2hDER8yVrpR-65">
          <mxGeometry relative="1" as="geometry" />
        </mxCell>
        <mxCell id="1gdPhKEpt5hJLUV513rt-62" value="I" style="ellipse;whiteSpace=wrap;html=1;aspect=fixed;" vertex="1" parent="1">
          <mxGeometry x="1070" y="910" width="40" height="40" as="geometry" />
        </mxCell>
        <mxCell id="1gdPhKEpt5hJLUV513rt-64" value="J" style="ellipse;whiteSpace=wrap;html=1;aspect=fixed;" vertex="1" parent="1">
          <mxGeometry x="1755" y="600" width="40" height="40" as="geometry" />
        </mxCell>
        <mxCell id="1gdPhKEpt5hJLUV513rt-79" style="edgeStyle=orthogonalEdgeStyle;rounded=0;orthogonalLoop=1;jettySize=auto;html=1;exitX=0.5;exitY=0;exitDx=0;exitDy=0;entryX=0;entryY=0.75;entryDx=0;entryDy=0;" edge="1" parent="1" source="1gdPhKEpt5hJLUV513rt-66" target="Tt5g-muoC2hDER8yVrpR-1">
          <mxGeometry relative="1" as="geometry" />
        </mxCell>
        <mxCell id="1gdPhKEpt5hJLUV513rt-66" value="J" style="ellipse;whiteSpace=wrap;html=1;aspect=fixed;" vertex="1" parent="1">
          <mxGeometry x="870" y="660" width="40" height="40" as="geometry" />
        </mxCell>
        <mxCell id="1gdPhKEpt5hJLUV513rt-68" value="True" style="edgeLabel;html=1;align=center;verticalAlign=middle;resizable=0;points=[];" vertex="1" connectable="0" parent="1">
          <mxGeometry x="1740" y="590" as="geometry" />
        </mxCell>
        <mxCell id="1gdPhKEpt5hJLUV513rt-71" value="False" style="edgeLabel;html=1;align=center;verticalAlign=middle;resizable=0;points=[];" vertex="1" connectable="0" parent="1">
          <mxGeometry x="1670" y="670" as="geometry" />
        </mxCell>
        <mxCell id="1gdPhKEpt5hJLUV513rt-74" style="edgeStyle=orthogonalEdgeStyle;rounded=0;orthogonalLoop=1;jettySize=auto;html=1;exitX=0.5;exitY=1;exitDx=0;exitDy=0;entryX=0.5;entryY=0;entryDx=0;entryDy=0;" edge="1" parent="1" source="1gdPhKEpt5hJLUV513rt-72" target="1gdPhKEpt5hJLUV513rt-73">
          <mxGeometry relative="1" as="geometry" />
        </mxCell>
        <mxCell id="1gdPhKEpt5hJLUV513rt-72" value="Output&lt;div&gt;&quot;Pilihan tidak valid&quot;&lt;/div&gt;" style="shape=parallelogram;perimeter=parallelogramPerimeter;whiteSpace=wrap;html=1;fixedSize=1;fontFamily=Times New Roman;fillColor=#d5e8d4;strokeColor=#82b366;fontSize=13;" vertex="1" parent="1">
          <mxGeometry x="1620" y="690" width="140" height="40" as="geometry" />
        </mxCell>
        <mxCell id="1gdPhKEpt5hJLUV513rt-73" value="K" style="ellipse;whiteSpace=wrap;html=1;aspect=fixed;" vertex="1" parent="1">
          <mxGeometry x="1672.5" y="750" width="40" height="40" as="geometry" />
        </mxCell>
        <mxCell id="1gdPhKEpt5hJLUV513rt-76" style="edgeStyle=orthogonalEdgeStyle;rounded=0;orthogonalLoop=1;jettySize=auto;html=1;exitX=0.5;exitY=0;exitDx=0;exitDy=0;entryX=1;entryY=0.75;entryDx=0;entryDy=0;" edge="1" parent="1" source="1gdPhKEpt5hJLUV513rt-75" target="Tt5g-muoC2hDER8yVrpR-1">
          <mxGeometry relative="1" as="geometry">
            <Array as="points">
              <mxPoint x="1060" y="630" />
              <mxPoint x="1012" y="630" />
            </Array>
          </mxGeometry>
        </mxCell>
        <mxCell id="1gdPhKEpt5hJLUV513rt-75" value="K" style="ellipse;whiteSpace=wrap;html=1;aspect=fixed;" vertex="1" parent="1">
          <mxGeometry x="1040" y="660" width="40" height="40" as="geometry" />
        </mxCell>
      </root>
    </mxGraphModel>
  </diagram>
  <diagram name="Copy of Page-1" id="tyWLobhKeOWzsV0UfW3k">
    <mxGraphModel dx="419" dy="756" grid="1" gridSize="10" guides="1" tooltips="1" connect="1" arrows="1" fold="1" page="1" pageScale="1" pageWidth="827" pageHeight="1169" math="0" shadow="0">
      <root>
        <mxCell id="q-2KJZIHNxTsaiK5psSX-0" />
        <mxCell id="q-2KJZIHNxTsaiK5psSX-1" parent="q-2KJZIHNxTsaiK5psSX-0" />
        <mxCell id="q-2KJZIHNxTsaiK5psSX-2" style="edgeStyle=orthogonalEdgeStyle;rounded=0;orthogonalLoop=1;jettySize=auto;html=1;exitX=0.5;exitY=1;exitDx=0;exitDy=0;entryX=0.5;entryY=0;entryDx=0;entryDy=0;" edge="1" parent="q-2KJZIHNxTsaiK5psSX-1" source="q-2KJZIHNxTsaiK5psSX-3" target="q-2KJZIHNxTsaiK5psSX-5">
          <mxGeometry relative="1" as="geometry" />
        </mxCell>
        <mxCell id="q-2KJZIHNxTsaiK5psSX-3" value="Start" style="rounded=1;whiteSpace=wrap;html=1;arcSize=50;fontFamily=Times New Roman;fillColor=#e1d5e7;strokeColor=#9673a6;fontSize=13;" vertex="1" parent="q-2KJZIHNxTsaiK5psSX-1">
          <mxGeometry x="950" y="50" width="40" height="20" as="geometry" />
        </mxCell>
        <mxCell id="q-2KJZIHNxTsaiK5psSX-4" style="edgeStyle=orthogonalEdgeStyle;rounded=0;orthogonalLoop=1;jettySize=auto;html=1;exitX=0.5;exitY=1;exitDx=0;exitDy=0;entryX=0.5;entryY=0;entryDx=0;entryDy=0;" edge="1" parent="q-2KJZIHNxTsaiK5psSX-1" source="q-2KJZIHNxTsaiK5psSX-5" target="q-2KJZIHNxTsaiK5psSX-7">
          <mxGeometry relative="1" as="geometry" />
        </mxCell>
        <mxCell id="q-2KJZIHNxTsaiK5psSX-5" value="akun_admin = [[&quot;admin&quot;, &quot;1234&quot;]]" style="rounded=0;whiteSpace=wrap;html=1;fontFamily=Times New Roman;fillColor=#fff2cc;strokeColor=#d6b656;fontSize=13;" vertex="1" parent="q-2KJZIHNxTsaiK5psSX-1">
          <mxGeometry x="885" y="90" width="170" height="40" as="geometry" />
        </mxCell>
        <mxCell id="q-2KJZIHNxTsaiK5psSX-6" style="edgeStyle=orthogonalEdgeStyle;rounded=0;orthogonalLoop=1;jettySize=auto;html=1;exitX=0.5;exitY=1;exitDx=0;exitDy=0;entryX=0.5;entryY=0;entryDx=0;entryDy=0;" edge="1" parent="q-2KJZIHNxTsaiK5psSX-1" source="q-2KJZIHNxTsaiK5psSX-7" target="q-2KJZIHNxTsaiK5psSX-9">
          <mxGeometry relative="1" as="geometry" />
        </mxCell>
        <mxCell id="q-2KJZIHNxTsaiK5psSX-7" value="akun_user = []" style="rounded=0;whiteSpace=wrap;html=1;fontFamily=Times New Roman;fillColor=#fff2cc;strokeColor=#d6b656;fontSize=13;" vertex="1" parent="q-2KJZIHNxTsaiK5psSX-1">
          <mxGeometry x="885" y="160" width="170" height="40" as="geometry" />
        </mxCell>
        <mxCell id="q-2KJZIHNxTsaiK5psSX-8" style="edgeStyle=orthogonalEdgeStyle;rounded=0;orthogonalLoop=1;jettySize=auto;html=1;exitX=0.5;exitY=1;exitDx=0;exitDy=0;entryX=0.5;entryY=0;entryDx=0;entryDy=0;" edge="1" parent="q-2KJZIHNxTsaiK5psSX-1" source="q-2KJZIHNxTsaiK5psSX-9" target="q-2KJZIHNxTsaiK5psSX-11">
          <mxGeometry relative="1" as="geometry" />
        </mxCell>
        <mxCell id="q-2KJZIHNxTsaiK5psSX-9" value="&lt;font style=&quot;color: rgb(0, 0, 0); background-color: light-dark(#ffffff, var(--ge-dark-color, #121212));&quot; face=&quot;Times New Roman&quot;&gt;komponen_pc =&amp;nbsp;&lt;span style=&quot;font-size: 14px; white-space: pre;&quot;&gt;[&lt;/span&gt;&lt;/font&gt;&lt;div style=&quot;line-height: 19px;&quot;&gt;&lt;div style=&quot;&quot;&gt;&lt;font style=&quot;font-size: 14px; white-space: pre; color: rgb(0, 0, 0); background-color: light-dark(#ffffff, var(--ge-dark-color, #121212));&quot; face=&quot;Times New Roman&quot;&gt;&amp;nbsp; &amp;nbsp;&lt;/font&gt;&lt;span style=&quot;background-color: transparent; font-size: 14px; white-space: pre;&quot;&gt;[&quot;Processor Intel i5&quot;, 10, 2500000],&lt;/span&gt;&lt;/div&gt;&lt;span style=&quot;font-size: 14px; white-space: pre;&quot;&gt;    [&quot;RAM DDR4 8GB&quot;, 15, 600000],&lt;br/&gt;    [&quot;SSD 512GB&quot;, 8, 900000]&lt;/span&gt;&lt;div style=&quot;font-size: 14px; white-space: pre;&quot;&gt;&lt;font style=&quot;color: rgb(0, 0, 0); background-color: light-dark(#ffffff, var(--ge-dark-color, #121212));&quot; face=&quot;Times New Roman&quot;&gt;]&lt;/font&gt;&lt;/div&gt;&lt;/div&gt;" style="rounded=0;whiteSpace=wrap;html=1;fontFamily=Times New Roman;fillColor=#fff2cc;strokeColor=#d6b656;fontSize=13;" vertex="1" parent="q-2KJZIHNxTsaiK5psSX-1">
          <mxGeometry x="850" y="230" width="240" height="100" as="geometry" />
        </mxCell>
        <mxCell id="q-2KJZIHNxTsaiK5psSX-10" style="edgeStyle=orthogonalEdgeStyle;rounded=0;orthogonalLoop=1;jettySize=auto;html=1;exitX=0.5;exitY=1;exitDx=0;exitDy=0;entryX=0.5;entryY=0;entryDx=0;entryDy=0;" edge="1" parent="q-2KJZIHNxTsaiK5psSX-1" source="q-2KJZIHNxTsaiK5psSX-11" target="q-2KJZIHNxTsaiK5psSX-13">
          <mxGeometry relative="1" as="geometry" />
        </mxCell>
        <mxCell id="q-2KJZIHNxTsaiK5psSX-11" value="transaksi = []" style="rounded=0;whiteSpace=wrap;html=1;fontFamily=Times New Roman;fillColor=#fff2cc;strokeColor=#d6b656;fontSize=13;" vertex="1" parent="q-2KJZIHNxTsaiK5psSX-1">
          <mxGeometry x="885" y="360" width="170" height="40" as="geometry" />
        </mxCell>
        <mxCell id="q-2KJZIHNxTsaiK5psSX-12" style="edgeStyle=orthogonalEdgeStyle;rounded=0;orthogonalLoop=1;jettySize=auto;html=1;exitX=0.5;exitY=1;exitDx=0;exitDy=0;entryX=0.5;entryY=0;entryDx=0;entryDy=0;" edge="1" parent="q-2KJZIHNxTsaiK5psSX-1" source="q-2KJZIHNxTsaiK5psSX-13" target="q-2KJZIHNxTsaiK5psSX-15">
          <mxGeometry relative="1" as="geometry" />
        </mxCell>
        <mxCell id="q-2KJZIHNxTsaiK5psSX-13" value="login_admin = false" style="rounded=0;whiteSpace=wrap;html=1;fontFamily=Times New Roman;fillColor=#fff2cc;strokeColor=#d6b656;fontSize=13;" vertex="1" parent="q-2KJZIHNxTsaiK5psSX-1">
          <mxGeometry x="885" y="431" width="170" height="40" as="geometry" />
        </mxCell>
        <mxCell id="q-2KJZIHNxTsaiK5psSX-14" style="edgeStyle=orthogonalEdgeStyle;rounded=0;orthogonalLoop=1;jettySize=auto;html=1;exitX=0.5;exitY=1;exitDx=0;exitDy=0;entryX=0.5;entryY=0;entryDx=0;entryDy=0;" edge="1" parent="q-2KJZIHNxTsaiK5psSX-1" source="q-2KJZIHNxTsaiK5psSX-15" target="q-2KJZIHNxTsaiK5psSX-18">
          <mxGeometry relative="1" as="geometry" />
        </mxCell>
        <mxCell id="q-2KJZIHNxTsaiK5psSX-15" value="login_user = false" style="rounded=0;whiteSpace=wrap;html=1;fontFamily=Times New Roman;fillColor=#fff2cc;strokeColor=#d6b656;fontSize=13;" vertex="1" parent="q-2KJZIHNxTsaiK5psSX-1">
          <mxGeometry x="885" y="501" width="170" height="40" as="geometry" />
        </mxCell>
        <mxCell id="q-2KJZIHNxTsaiK5psSX-16" style="edgeStyle=orthogonalEdgeStyle;rounded=0;orthogonalLoop=1;jettySize=auto;html=1;exitX=1;exitY=0.5;exitDx=0;exitDy=0;entryX=0;entryY=0.5;entryDx=0;entryDy=0;" edge="1" parent="q-2KJZIHNxTsaiK5psSX-1" source="q-2KJZIHNxTsaiK5psSX-18" target="q-2KJZIHNxTsaiK5psSX-20">
          <mxGeometry relative="1" as="geometry" />
        </mxCell>
        <mxCell id="q-2KJZIHNxTsaiK5psSX-17" style="edgeStyle=orthogonalEdgeStyle;rounded=0;orthogonalLoop=1;jettySize=auto;html=1;exitX=0.5;exitY=1;exitDx=0;exitDy=0;entryX=0.5;entryY=0;entryDx=0;entryDy=0;" edge="1" parent="q-2KJZIHNxTsaiK5psSX-1" source="q-2KJZIHNxTsaiK5psSX-18" target="q-2KJZIHNxTsaiK5psSX-67">
          <mxGeometry relative="1" as="geometry" />
        </mxCell>
        <mxCell id="q-2KJZIHNxTsaiK5psSX-18" value="while True" style="shape=hexagon;perimeter=hexagonPerimeter2;whiteSpace=wrap;html=1;fixedSize=1;fontFamily=Times New Roman;fillColor=#ffe6cc;strokeColor=#d79b00;fontSize=13;" vertex="1" parent="q-2KJZIHNxTsaiK5psSX-1">
          <mxGeometry x="920" y="580" width="100" height="40" as="geometry" />
        </mxCell>
        <mxCell id="q-2KJZIHNxTsaiK5psSX-19" style="edgeStyle=orthogonalEdgeStyle;rounded=0;orthogonalLoop=1;jettySize=auto;html=1;exitX=1;exitY=0.5;exitDx=0;exitDy=0;entryX=0;entryY=0.5;entryDx=0;entryDy=0;" edge="1" parent="q-2KJZIHNxTsaiK5psSX-1" source="q-2KJZIHNxTsaiK5psSX-20" target="q-2KJZIHNxTsaiK5psSX-23">
          <mxGeometry relative="1" as="geometry" />
        </mxCell>
        <mxCell id="q-2KJZIHNxTsaiK5psSX-20" value="Output&lt;div&gt;&quot;1. Login, 2. Register, 3. Keluar&quot;&lt;/div&gt;" style="shape=parallelogram;perimeter=parallelogramPerimeter;whiteSpace=wrap;html=1;fixedSize=1;fontFamily=Times New Roman;fillColor=#d5e8d4;strokeColor=#82b366;fontSize=13;" vertex="1" parent="q-2KJZIHNxTsaiK5psSX-1">
          <mxGeometry x="1055" y="580" width="140" height="40" as="geometry" />
        </mxCell>
        <mxCell id="q-2KJZIHNxTsaiK5psSX-21" value="End" style="rounded=1;whiteSpace=wrap;html=1;arcSize=50;fontFamily=Times New Roman;fillColor=#e1d5e7;strokeColor=#9673a6;fontSize=13;" vertex="1" parent="q-2KJZIHNxTsaiK5psSX-1">
          <mxGeometry x="950" y="1090" width="40" height="20" as="geometry" />
        </mxCell>
        <mxCell id="q-2KJZIHNxTsaiK5psSX-22" style="edgeStyle=orthogonalEdgeStyle;rounded=0;orthogonalLoop=1;jettySize=auto;html=1;exitX=0.5;exitY=1;exitDx=0;exitDy=0;entryX=0.5;entryY=0;entryDx=0;entryDy=0;" edge="1" parent="q-2KJZIHNxTsaiK5psSX-1" source="q-2KJZIHNxTsaiK5psSX-23" target="q-2KJZIHNxTsaiK5psSX-29">
          <mxGeometry relative="1" as="geometry" />
        </mxCell>
        <mxCell id="q-2KJZIHNxTsaiK5psSX-23" value="Input pilihan" style="shape=parallelogram;perimeter=parallelogramPerimeter;whiteSpace=wrap;html=1;fixedSize=1;fontFamily=Times New Roman;fillColor=#dae8fc;strokeColor=#6c8ebf;fontSize=13;" vertex="1" parent="q-2KJZIHNxTsaiK5psSX-1">
          <mxGeometry x="1220" y="580" width="130" height="40" as="geometry" />
        </mxCell>
        <mxCell id="q-2KJZIHNxTsaiK5psSX-24" style="edgeStyle=orthogonalEdgeStyle;rounded=0;orthogonalLoop=1;jettySize=auto;html=1;exitX=1;exitY=0.5;exitDx=0;exitDy=0;entryX=0;entryY=0.5;entryDx=0;entryDy=0;" edge="1" parent="q-2KJZIHNxTsaiK5psSX-1" source="q-2KJZIHNxTsaiK5psSX-26" target="q-2KJZIHNxTsaiK5psSX-61">
          <mxGeometry relative="1" as="geometry" />
        </mxCell>
        <mxCell id="q-2KJZIHNxTsaiK5psSX-25" style="edgeStyle=orthogonalEdgeStyle;rounded=0;orthogonalLoop=1;jettySize=auto;html=1;exitX=0.5;exitY=1;exitDx=0;exitDy=0;entryX=0.5;entryY=0;entryDx=0;entryDy=0;" edge="1" parent="q-2KJZIHNxTsaiK5psSX-1" source="q-2KJZIHNxTsaiK5psSX-26" target="q-2KJZIHNxTsaiK5psSX-63">
          <mxGeometry relative="1" as="geometry" />
        </mxCell>
        <mxCell id="q-2KJZIHNxTsaiK5psSX-26" value="duplikat = true" style="rhombus;whiteSpace=wrap;html=1;fontFamily=Times New Roman;fillColor=#f8cecc;strokeColor=#b85450;fontSize=13;" vertex="1" parent="q-2KJZIHNxTsaiK5psSX-1">
          <mxGeometry x="1242.5" y="351" width="80" height="80" as="geometry" />
        </mxCell>
        <mxCell id="q-2KJZIHNxTsaiK5psSX-27" style="edgeStyle=orthogonalEdgeStyle;rounded=0;orthogonalLoop=1;jettySize=auto;html=1;exitX=0.5;exitY=1;exitDx=0;exitDy=0;entryX=0.5;entryY=0;entryDx=0;entryDy=0;" edge="1" parent="q-2KJZIHNxTsaiK5psSX-1" source="q-2KJZIHNxTsaiK5psSX-29" target="q-2KJZIHNxTsaiK5psSX-31">
          <mxGeometry relative="1" as="geometry" />
        </mxCell>
        <mxCell id="q-2KJZIHNxTsaiK5psSX-28" style="edgeStyle=orthogonalEdgeStyle;rounded=0;orthogonalLoop=1;jettySize=auto;html=1;exitX=1;exitY=0.5;exitDx=0;exitDy=0;entryX=0;entryY=0.5;entryDx=0;entryDy=0;" edge="1" parent="q-2KJZIHNxTsaiK5psSX-1" source="q-2KJZIHNxTsaiK5psSX-29" target="q-2KJZIHNxTsaiK5psSX-42">
          <mxGeometry relative="1" as="geometry" />
        </mxCell>
        <mxCell id="q-2KJZIHNxTsaiK5psSX-29" value="pilihan = &quot;1&quot;" style="rhombus;whiteSpace=wrap;html=1;fontFamily=Times New Roman;fillColor=#f8cecc;strokeColor=#b85450;fontSize=13;" vertex="1" parent="q-2KJZIHNxTsaiK5psSX-1">
          <mxGeometry x="1245" y="650" width="80" height="80" as="geometry" />
        </mxCell>
        <mxCell id="q-2KJZIHNxTsaiK5psSX-30" style="edgeStyle=orthogonalEdgeStyle;rounded=0;orthogonalLoop=1;jettySize=auto;html=1;exitX=0.5;exitY=1;exitDx=0;exitDy=0;entryX=0.5;entryY=0;entryDx=0;entryDy=0;" edge="1" parent="q-2KJZIHNxTsaiK5psSX-1" source="q-2KJZIHNxTsaiK5psSX-31" target="q-2KJZIHNxTsaiK5psSX-33">
          <mxGeometry relative="1" as="geometry" />
        </mxCell>
        <mxCell id="q-2KJZIHNxTsaiK5psSX-31" value="Output&lt;div&gt;&quot;1. Login Admin, 2. Login User, 3. Kembali&quot;&lt;/div&gt;" style="shape=parallelogram;perimeter=parallelogramPerimeter;whiteSpace=wrap;html=1;fixedSize=1;fontFamily=Times New Roman;fillColor=#d5e8d4;strokeColor=#82b366;fontSize=13;" vertex="1" parent="q-2KJZIHNxTsaiK5psSX-1">
          <mxGeometry x="1215" y="760" width="140" height="40" as="geometry" />
        </mxCell>
        <mxCell id="q-2KJZIHNxTsaiK5psSX-32" style="edgeStyle=orthogonalEdgeStyle;rounded=0;orthogonalLoop=1;jettySize=auto;html=1;exitX=1;exitY=0.5;exitDx=0;exitDy=0;entryX=0;entryY=0.5;entryDx=0;entryDy=0;" edge="1" parent="q-2KJZIHNxTsaiK5psSX-1" source="q-2KJZIHNxTsaiK5psSX-33" target="q-2KJZIHNxTsaiK5psSX-35">
          <mxGeometry relative="1" as="geometry" />
        </mxCell>
        <mxCell id="q-2KJZIHNxTsaiK5psSX-33" value="pilih_login = &quot;1&quot;" style="rhombus;whiteSpace=wrap;html=1;fontFamily=Times New Roman;fillColor=#f8cecc;strokeColor=#b85450;fontSize=13;" vertex="1" parent="q-2KJZIHNxTsaiK5psSX-1">
          <mxGeometry x="1245" y="830" width="80" height="80" as="geometry" />
        </mxCell>
        <mxCell id="q-2KJZIHNxTsaiK5psSX-34" style="edgeStyle=orthogonalEdgeStyle;rounded=0;orthogonalLoop=1;jettySize=auto;html=1;exitX=1;exitY=0.5;exitDx=0;exitDy=0;entryX=0;entryY=0.5;entryDx=0;entryDy=0;" edge="1" parent="q-2KJZIHNxTsaiK5psSX-1" source="q-2KJZIHNxTsaiK5psSX-35" target="q-2KJZIHNxTsaiK5psSX-38">
          <mxGeometry relative="1" as="geometry" />
        </mxCell>
        <mxCell id="q-2KJZIHNxTsaiK5psSX-35" value="Input username, password" style="shape=parallelogram;perimeter=parallelogramPerimeter;whiteSpace=wrap;html=1;fixedSize=1;fontFamily=Times New Roman;fillColor=#dae8fc;strokeColor=#6c8ebf;fontSize=13;" vertex="1" parent="q-2KJZIHNxTsaiK5psSX-1">
          <mxGeometry x="1335" y="850" width="130" height="40" as="geometry" />
        </mxCell>
        <mxCell id="q-2KJZIHNxTsaiK5psSX-36" style="edgeStyle=orthogonalEdgeStyle;rounded=0;orthogonalLoop=1;jettySize=auto;html=1;exitX=0.5;exitY=1;exitDx=0;exitDy=0;entryX=0.5;entryY=0;entryDx=0;entryDy=0;" edge="1" parent="q-2KJZIHNxTsaiK5psSX-1" source="q-2KJZIHNxTsaiK5psSX-38" target="q-2KJZIHNxTsaiK5psSX-40">
          <mxGeometry relative="1" as="geometry" />
        </mxCell>
        <mxCell id="q-2KJZIHNxTsaiK5psSX-37" style="edgeStyle=orthogonalEdgeStyle;rounded=0;orthogonalLoop=1;jettySize=auto;html=1;exitX=1;exitY=0.5;exitDx=0;exitDy=0;entryX=0;entryY=0.5;entryDx=0;entryDy=0;" edge="1" parent="q-2KJZIHNxTsaiK5psSX-1" source="q-2KJZIHNxTsaiK5psSX-38" target="q-2KJZIHNxTsaiK5psSX-41">
          <mxGeometry relative="1" as="geometry" />
        </mxCell>
        <mxCell id="q-2KJZIHNxTsaiK5psSX-38" value="username == akun_admin[0][0]&amp;nbsp;&lt;div&gt;&amp;amp;&amp;amp; password == akun_admin[0][1]&lt;/div&gt;" style="rhombus;whiteSpace=wrap;html=1;fontFamily=Times New Roman;fillColor=#f8cecc;strokeColor=#b85450;fontSize=13;" vertex="1" parent="q-2KJZIHNxTsaiK5psSX-1">
          <mxGeometry x="1480" y="830" width="210" height="80" as="geometry" />
        </mxCell>
        <mxCell id="q-2KJZIHNxTsaiK5psSX-39" style="edgeStyle=orthogonalEdgeStyle;rounded=0;orthogonalLoop=1;jettySize=auto;html=1;exitX=0.5;exitY=1;exitDx=0;exitDy=0;entryX=1;entryY=1;entryDx=0;entryDy=0;" edge="1" parent="q-2KJZIHNxTsaiK5psSX-1" source="q-2KJZIHNxTsaiK5psSX-40" target="q-2KJZIHNxTsaiK5psSX-33">
          <mxGeometry relative="1" as="geometry" />
        </mxCell>
        <mxCell id="q-2KJZIHNxTsaiK5psSX-40" value="Output&lt;div&gt;&quot;Username atau password admin salah!&quot;&lt;/div&gt;" style="shape=parallelogram;perimeter=parallelogramPerimeter;whiteSpace=wrap;html=1;fixedSize=1;fontFamily=Times New Roman;fillColor=#d5e8d4;strokeColor=#82b366;fontSize=13;" vertex="1" parent="q-2KJZIHNxTsaiK5psSX-1">
          <mxGeometry x="1514" y="930" width="140" height="40" as="geometry" />
        </mxCell>
        <mxCell id="q-2KJZIHNxTsaiK5psSX-41" value="login_admin = true" style="rounded=0;whiteSpace=wrap;html=1;fontFamily=Times New Roman;fillColor=#fff2cc;strokeColor=#d6b656;fontSize=13;" vertex="1" parent="q-2KJZIHNxTsaiK5psSX-1">
          <mxGeometry x="1710" y="850" width="130" height="40" as="geometry" />
        </mxCell>
        <mxCell id="q-2KJZIHNxTsaiK5psSX-42" value="A" style="ellipse;whiteSpace=wrap;html=1;aspect=fixed;" vertex="1" parent="q-2KJZIHNxTsaiK5psSX-1">
          <mxGeometry x="1370" y="670" width="40" height="40" as="geometry" />
        </mxCell>
        <mxCell id="q-2KJZIHNxTsaiK5psSX-43" style="edgeStyle=orthogonalEdgeStyle;rounded=0;orthogonalLoop=1;jettySize=auto;html=1;exitX=1;exitY=0.5;exitDx=0;exitDy=0;entryX=0;entryY=0.5;entryDx=0;entryDy=0;" edge="1" parent="q-2KJZIHNxTsaiK5psSX-1" source="q-2KJZIHNxTsaiK5psSX-44" target="q-2KJZIHNxTsaiK5psSX-47">
          <mxGeometry relative="1" as="geometry" />
        </mxCell>
        <mxCell id="q-2KJZIHNxTsaiK5psSX-44" value="A" style="ellipse;whiteSpace=wrap;html=1;aspect=fixed;" vertex="1" parent="q-2KJZIHNxTsaiK5psSX-1">
          <mxGeometry x="1180" y="50" width="40" height="40" as="geometry" />
        </mxCell>
        <mxCell id="q-2KJZIHNxTsaiK5psSX-45" style="edgeStyle=orthogonalEdgeStyle;rounded=0;orthogonalLoop=1;jettySize=auto;html=1;exitX=1;exitY=0.5;exitDx=0;exitDy=0;entryX=0;entryY=0.5;entryDx=0;entryDy=0;" edge="1" parent="q-2KJZIHNxTsaiK5psSX-1" source="q-2KJZIHNxTsaiK5psSX-47" target="q-2KJZIHNxTsaiK5psSX-79">
          <mxGeometry relative="1" as="geometry">
            <mxPoint x="1350" y="70" as="targetPoint" />
          </mxGeometry>
        </mxCell>
        <mxCell id="q-2KJZIHNxTsaiK5psSX-46" style="edgeStyle=orthogonalEdgeStyle;rounded=0;orthogonalLoop=1;jettySize=auto;html=1;exitX=0.5;exitY=1;exitDx=0;exitDy=0;entryX=0.5;entryY=0;entryDx=0;entryDy=0;" edge="1" parent="q-2KJZIHNxTsaiK5psSX-1" source="q-2KJZIHNxTsaiK5psSX-47" target="q-2KJZIHNxTsaiK5psSX-49">
          <mxGeometry relative="1" as="geometry" />
        </mxCell>
        <mxCell id="q-2KJZIHNxTsaiK5psSX-47" value="pilihan = &quot;2&quot;" style="rhombus;whiteSpace=wrap;html=1;fontFamily=Times New Roman;fillColor=#f8cecc;strokeColor=#b85450;fontSize=13;" vertex="1" parent="q-2KJZIHNxTsaiK5psSX-1">
          <mxGeometry x="1241" y="30" width="80" height="80" as="geometry" />
        </mxCell>
        <mxCell id="q-2KJZIHNxTsaiK5psSX-48" style="edgeStyle=orthogonalEdgeStyle;rounded=0;orthogonalLoop=1;jettySize=auto;html=1;exitX=0.5;exitY=1;exitDx=0;exitDy=0;entryX=0.5;entryY=0;entryDx=0;entryDy=0;" edge="1" parent="q-2KJZIHNxTsaiK5psSX-1" source="q-2KJZIHNxTsaiK5psSX-49" target="q-2KJZIHNxTsaiK5psSX-51">
          <mxGeometry relative="1" as="geometry" />
        </mxCell>
        <mxCell id="q-2KJZIHNxTsaiK5psSX-49" value="Input username_baru, password_baru" style="shape=parallelogram;perimeter=parallelogramPerimeter;whiteSpace=wrap;html=1;fixedSize=1;fontFamily=Times New Roman;fillColor=#dae8fc;strokeColor=#6c8ebf;fontSize=13;" vertex="1" parent="q-2KJZIHNxTsaiK5psSX-1">
          <mxGeometry x="1215" y="130" width="130" height="40" as="geometry" />
        </mxCell>
        <mxCell id="q-2KJZIHNxTsaiK5psSX-50" style="edgeStyle=orthogonalEdgeStyle;rounded=0;orthogonalLoop=1;jettySize=auto;html=1;exitX=0.5;exitY=1;exitDx=0;exitDy=0;entryX=0.5;entryY=0;entryDx=0;entryDy=0;" edge="1" parent="q-2KJZIHNxTsaiK5psSX-1" source="q-2KJZIHNxTsaiK5psSX-51" target="q-2KJZIHNxTsaiK5psSX-54">
          <mxGeometry relative="1" as="geometry" />
        </mxCell>
        <mxCell id="q-2KJZIHNxTsaiK5psSX-51" value="duplikat = false" style="rounded=0;whiteSpace=wrap;html=1;fontFamily=Times New Roman;fillColor=#fff2cc;strokeColor=#d6b656;fontSize=13;" vertex="1" parent="q-2KJZIHNxTsaiK5psSX-1">
          <mxGeometry x="1232.5" y="190" width="95" height="30" as="geometry" />
        </mxCell>
        <mxCell id="q-2KJZIHNxTsaiK5psSX-52" style="edgeStyle=orthogonalEdgeStyle;rounded=0;orthogonalLoop=1;jettySize=auto;html=1;exitX=1;exitY=0.5;exitDx=0;exitDy=0;entryX=0;entryY=0.5;entryDx=0;entryDy=0;" edge="1" parent="q-2KJZIHNxTsaiK5psSX-1" source="q-2KJZIHNxTsaiK5psSX-54" target="q-2KJZIHNxTsaiK5psSX-57">
          <mxGeometry relative="1" as="geometry">
            <mxPoint x="1370" y="270.25" as="targetPoint" />
          </mxGeometry>
        </mxCell>
        <mxCell id="q-2KJZIHNxTsaiK5psSX-53" style="edgeStyle=orthogonalEdgeStyle;rounded=0;orthogonalLoop=1;jettySize=auto;html=1;exitX=0.5;exitY=1;exitDx=0;exitDy=0;entryX=0.5;entryY=0;entryDx=0;entryDy=0;" edge="1" parent="q-2KJZIHNxTsaiK5psSX-1" source="q-2KJZIHNxTsaiK5psSX-54" target="q-2KJZIHNxTsaiK5psSX-26">
          <mxGeometry relative="1" as="geometry">
            <mxPoint x="1282.5" y="350" as="targetPoint" />
          </mxGeometry>
        </mxCell>
        <mxCell id="q-2KJZIHNxTsaiK5psSX-54" value="for user in akun_user" style="shape=hexagon;perimeter=hexagonPerimeter2;whiteSpace=wrap;html=1;fixedSize=1;fontFamily=Times New Roman;fillColor=#ffe6cc;strokeColor=#d79b00;fontSize=13;" vertex="1" parent="q-2KJZIHNxTsaiK5psSX-1">
          <mxGeometry x="1232.5" y="250" width="100" height="40" as="geometry" />
        </mxCell>
        <mxCell id="q-2KJZIHNxTsaiK5psSX-55" style="edgeStyle=orthogonalEdgeStyle;rounded=0;orthogonalLoop=1;jettySize=auto;html=1;exitX=1;exitY=0.5;exitDx=0;exitDy=0;entryX=0;entryY=0.5;entryDx=0;entryDy=0;" edge="1" parent="q-2KJZIHNxTsaiK5psSX-1" source="q-2KJZIHNxTsaiK5psSX-57" target="q-2KJZIHNxTsaiK5psSX-59">
          <mxGeometry relative="1" as="geometry" />
        </mxCell>
        <mxCell id="q-2KJZIHNxTsaiK5psSX-56" style="edgeStyle=orthogonalEdgeStyle;rounded=0;orthogonalLoop=1;jettySize=auto;html=1;exitX=0.5;exitY=1;exitDx=0;exitDy=0;entryX=0.625;entryY=1;entryDx=0;entryDy=0;" edge="1" parent="q-2KJZIHNxTsaiK5psSX-1" source="q-2KJZIHNxTsaiK5psSX-57" target="q-2KJZIHNxTsaiK5psSX-54">
          <mxGeometry relative="1" as="geometry" />
        </mxCell>
        <mxCell id="q-2KJZIHNxTsaiK5psSX-57" value="username_baru == user[0]" style="rhombus;whiteSpace=wrap;html=1;fontFamily=Times New Roman;fillColor=#f8cecc;strokeColor=#b85450;fontSize=13;" vertex="1" parent="q-2KJZIHNxTsaiK5psSX-1">
          <mxGeometry x="1370" y="230" width="80" height="80" as="geometry" />
        </mxCell>
        <mxCell id="q-2KJZIHNxTsaiK5psSX-58" style="edgeStyle=orthogonalEdgeStyle;rounded=0;orthogonalLoop=1;jettySize=auto;html=1;exitX=0.5;exitY=1;exitDx=0;exitDy=0;entryX=1;entryY=0;entryDx=0;entryDy=0;" edge="1" parent="q-2KJZIHNxTsaiK5psSX-1" source="q-2KJZIHNxTsaiK5psSX-59" target="q-2KJZIHNxTsaiK5psSX-26">
          <mxGeometry relative="1" as="geometry">
            <Array as="points">
              <mxPoint x="1518" y="340" />
              <mxPoint x="1310" y="340" />
              <mxPoint x="1310" y="371" />
            </Array>
          </mxGeometry>
        </mxCell>
        <mxCell id="q-2KJZIHNxTsaiK5psSX-59" value="duplikat = true" style="rounded=0;whiteSpace=wrap;html=1;fontFamily=Times New Roman;fillColor=#fff2cc;strokeColor=#d6b656;fontSize=13;" vertex="1" parent="q-2KJZIHNxTsaiK5psSX-1">
          <mxGeometry x="1470" y="255" width="95" height="30" as="geometry" />
        </mxCell>
        <mxCell id="q-2KJZIHNxTsaiK5psSX-60" style="edgeStyle=orthogonalEdgeStyle;rounded=0;orthogonalLoop=1;jettySize=auto;html=1;exitX=1;exitY=0.5;exitDx=0;exitDy=0;entryX=0.5;entryY=0;entryDx=0;entryDy=0;" edge="1" parent="q-2KJZIHNxTsaiK5psSX-1" source="q-2KJZIHNxTsaiK5psSX-61" target="q-2KJZIHNxTsaiK5psSX-64">
          <mxGeometry relative="1" as="geometry" />
        </mxCell>
        <mxCell id="q-2KJZIHNxTsaiK5psSX-61" value="Output&lt;div&gt;&quot;Username sudah digunakan&quot;&lt;/div&gt;" style="shape=parallelogram;perimeter=parallelogramPerimeter;whiteSpace=wrap;html=1;fixedSize=1;fontFamily=Times New Roman;fillColor=#d5e8d4;strokeColor=#82b366;fontSize=13;" vertex="1" parent="q-2KJZIHNxTsaiK5psSX-1">
          <mxGeometry x="1335" y="371" width="140" height="40" as="geometry" />
        </mxCell>
        <mxCell id="q-2KJZIHNxTsaiK5psSX-62" style="edgeStyle=orthogonalEdgeStyle;rounded=0;orthogonalLoop=1;jettySize=auto;html=1;exitX=1;exitY=0.5;exitDx=0;exitDy=0;entryX=0;entryY=0.5;entryDx=0;entryDy=0;" edge="1" parent="q-2KJZIHNxTsaiK5psSX-1" source="q-2KJZIHNxTsaiK5psSX-63" target="q-2KJZIHNxTsaiK5psSX-64">
          <mxGeometry relative="1" as="geometry" />
        </mxCell>
        <mxCell id="q-2KJZIHNxTsaiK5psSX-63" value="akun_user.append([username_baru, password_baru])" style="rounded=0;whiteSpace=wrap;html=1;fontFamily=Times New Roman;fillColor=#fff2cc;strokeColor=#d6b656;fontSize=13;" vertex="1" parent="q-2KJZIHNxTsaiK5psSX-1">
          <mxGeometry x="1167.5" y="465" width="230" height="30" as="geometry" />
        </mxCell>
        <mxCell id="q-2KJZIHNxTsaiK5psSX-64" value="C" style="ellipse;whiteSpace=wrap;html=1;aspect=fixed;" vertex="1" parent="q-2KJZIHNxTsaiK5psSX-1">
          <mxGeometry x="1497.5" y="460" width="40" height="40" as="geometry" />
        </mxCell>
        <mxCell id="q-2KJZIHNxTsaiK5psSX-66" style="edgeStyle=orthogonalEdgeStyle;rounded=0;orthogonalLoop=1;jettySize=auto;html=1;exitX=0.5;exitY=1;exitDx=0;exitDy=0;entryX=0.5;entryY=0;entryDx=0;entryDy=0;" edge="1" parent="q-2KJZIHNxTsaiK5psSX-1" source="q-2KJZIHNxTsaiK5psSX-67" target="q-2KJZIHNxTsaiK5psSX-74">
          <mxGeometry relative="1" as="geometry" />
        </mxCell>
        <mxCell id="q-2KJZIHNxTsaiK5psSX-67" value="while login_admin == true" style="shape=hexagon;perimeter=hexagonPerimeter2;whiteSpace=wrap;html=1;fixedSize=1;fontFamily=Times New Roman;fillColor=#ffe6cc;strokeColor=#d79b00;fontSize=13;" vertex="1" parent="q-2KJZIHNxTsaiK5psSX-1">
          <mxGeometry x="920" y="930" width="100" height="40" as="geometry" />
        </mxCell>
        <mxCell id="q-2KJZIHNxTsaiK5psSX-68" style="edgeStyle=orthogonalEdgeStyle;rounded=0;orthogonalLoop=1;jettySize=auto;html=1;exitX=0.5;exitY=1;exitDx=0;exitDy=0;entryX=0.625;entryY=0;entryDx=0;entryDy=0;" edge="1" parent="q-2KJZIHNxTsaiK5psSX-1" source="q-2KJZIHNxTsaiK5psSX-69" target="q-2KJZIHNxTsaiK5psSX-67">
          <mxGeometry relative="1" as="geometry" />
        </mxCell>
        <mxCell id="q-2KJZIHNxTsaiK5psSX-69" value="C" style="ellipse;whiteSpace=wrap;html=1;aspect=fixed;" vertex="1" parent="q-2KJZIHNxTsaiK5psSX-1">
          <mxGeometry x="980" y="850" width="40" height="40" as="geometry" />
        </mxCell>
        <mxCell id="q-2KJZIHNxTsaiK5psSX-71" value="A" style="shape=offPageConnector;whiteSpace=wrap;html=1;fontFamily=Times New Roman;fillColor=#60a917;fontColor=#ffffff;strokeColor=#2D7600;fontSize=13;" vertex="1" parent="q-2KJZIHNxTsaiK5psSX-1">
          <mxGeometry x="2560" y="60" width="33.08" height="40" as="geometry" />
        </mxCell>
        <mxCell id="q-2KJZIHNxTsaiK5psSX-72" style="edgeStyle=orthogonalEdgeStyle;rounded=0;orthogonalLoop=1;jettySize=auto;html=1;exitX=1;exitY=0.5;exitDx=0;exitDy=0;entryX=0;entryY=0.25;entryDx=0;entryDy=0;" edge="1" parent="q-2KJZIHNxTsaiK5psSX-1" source="q-2KJZIHNxTsaiK5psSX-74" target="q-2KJZIHNxTsaiK5psSX-76">
          <mxGeometry relative="1" as="geometry" />
        </mxCell>
        <mxCell id="q-2KJZIHNxTsaiK5psSX-73" style="edgeStyle=orthogonalEdgeStyle;rounded=0;orthogonalLoop=1;jettySize=auto;html=1;exitX=0.5;exitY=1;exitDx=0;exitDy=0;entryX=0.5;entryY=0;entryDx=0;entryDy=0;" edge="1" parent="q-2KJZIHNxTsaiK5psSX-1" source="q-2KJZIHNxTsaiK5psSX-74" target="q-2KJZIHNxTsaiK5psSX-21">
          <mxGeometry relative="1" as="geometry" />
        </mxCell>
        <mxCell id="q-2KJZIHNxTsaiK5psSX-74" value="while login_user == true" style="shape=hexagon;perimeter=hexagonPerimeter2;whiteSpace=wrap;html=1;fixedSize=1;fontFamily=Times New Roman;fillColor=#ffe6cc;strokeColor=#d79b00;fontSize=13;" vertex="1" parent="q-2KJZIHNxTsaiK5psSX-1">
          <mxGeometry x="920" y="1010" width="100" height="40" as="geometry" />
        </mxCell>
        <mxCell id="q-2KJZIHNxTsaiK5psSX-75" style="edgeStyle=orthogonalEdgeStyle;rounded=0;orthogonalLoop=1;jettySize=auto;html=1;exitX=0.5;exitY=1;exitDx=0;exitDy=0;entryX=0.625;entryY=1;entryDx=0;entryDy=0;" edge="1" parent="q-2KJZIHNxTsaiK5psSX-1" source="q-2KJZIHNxTsaiK5psSX-76" target="q-2KJZIHNxTsaiK5psSX-74">
          <mxGeometry relative="1" as="geometry" />
        </mxCell>
        <mxCell id="q-2KJZIHNxTsaiK5psSX-76" value="B" style="shape=offPageConnector;whiteSpace=wrap;html=1;fontFamily=Times New Roman;fillColor=#008a00;fontColor=#ffffff;strokeColor=#005700;fontSize=13;" vertex="1" parent="q-2KJZIHNxTsaiK5psSX-1">
          <mxGeometry x="1070" y="1020" width="33.08" height="40" as="geometry" />
        </mxCell>
        <mxCell id="q-2KJZIHNxTsaiK5psSX-77" style="edgeStyle=orthogonalEdgeStyle;rounded=0;orthogonalLoop=1;jettySize=auto;html=1;exitX=1;exitY=0.5;exitDx=0;exitDy=0;entryX=0;entryY=0.5;entryDx=0;entryDy=0;" edge="1" parent="q-2KJZIHNxTsaiK5psSX-1" source="q-2KJZIHNxTsaiK5psSX-79" target="q-2KJZIHNxTsaiK5psSX-81">
          <mxGeometry relative="1" as="geometry" />
        </mxCell>
        <mxCell id="q-2KJZIHNxTsaiK5psSX-78" style="edgeStyle=orthogonalEdgeStyle;rounded=0;orthogonalLoop=1;jettySize=auto;html=1;exitX=0.5;exitY=1;exitDx=0;exitDy=0;entryX=0.5;entryY=0;entryDx=0;entryDy=0;" edge="1" parent="q-2KJZIHNxTsaiK5psSX-1" source="q-2KJZIHNxTsaiK5psSX-79" target="q-2KJZIHNxTsaiK5psSX-82">
          <mxGeometry relative="1" as="geometry" />
        </mxCell>
        <mxCell id="q-2KJZIHNxTsaiK5psSX-79" value="pilihan = &quot;3&quot;" style="rhombus;whiteSpace=wrap;html=1;fontFamily=Times New Roman;fillColor=#f8cecc;strokeColor=#b85450;fontSize=13;" vertex="1" parent="q-2KJZIHNxTsaiK5psSX-1">
          <mxGeometry x="1370" y="30" width="80" height="80" as="geometry" />
        </mxCell>
        <mxCell id="q-2KJZIHNxTsaiK5psSX-80" style="edgeStyle=orthogonalEdgeStyle;rounded=0;orthogonalLoop=1;jettySize=auto;html=1;exitX=1;exitY=0.5;exitDx=0;exitDy=0;entryX=1;entryY=0.25;entryDx=0;entryDy=0;" edge="1" parent="q-2KJZIHNxTsaiK5psSX-1" source="q-2KJZIHNxTsaiK5psSX-81" target="q-2KJZIHNxTsaiK5psSX-18">
          <mxGeometry relative="1" as="geometry">
            <Array as="points">
              <mxPoint x="1640" y="70" />
              <mxPoint x="1640" y="20" />
              <mxPoint x="1110" y="20" />
              <mxPoint x="1110" y="560" />
              <mxPoint x="1012" y="560" />
            </Array>
          </mxGeometry>
        </mxCell>
        <mxCell id="q-2KJZIHNxTsaiK5psSX-81" value="Output&lt;div&gt;&quot;Pilihan tidak valid&quot;&lt;/div&gt;" style="shape=parallelogram;perimeter=parallelogramPerimeter;whiteSpace=wrap;html=1;fixedSize=1;fontFamily=Times New Roman;fillColor=#d5e8d4;strokeColor=#82b366;fontSize=13;" vertex="1" parent="q-2KJZIHNxTsaiK5psSX-1">
          <mxGeometry x="1490" y="50" width="140" height="40" as="geometry" />
        </mxCell>
        <mxCell id="q-2KJZIHNxTsaiK5psSX-82" value="D" style="ellipse;whiteSpace=wrap;html=1;aspect=fixed;" vertex="1" parent="q-2KJZIHNxTsaiK5psSX-1">
          <mxGeometry x="1390" y="130" width="40" height="40" as="geometry" />
        </mxCell>
        <mxCell id="q-2KJZIHNxTsaiK5psSX-83" style="edgeStyle=orthogonalEdgeStyle;rounded=0;orthogonalLoop=1;jettySize=auto;html=1;exitX=0;exitY=0.5;exitDx=0;exitDy=0;entryX=1;entryY=0.5;entryDx=0;entryDy=0;" edge="1" parent="q-2KJZIHNxTsaiK5psSX-1" source="q-2KJZIHNxTsaiK5psSX-84" target="q-2KJZIHNxTsaiK5psSX-21">
          <mxGeometry relative="1" as="geometry" />
        </mxCell>
        <mxCell id="q-2KJZIHNxTsaiK5psSX-84" value="D" style="ellipse;whiteSpace=wrap;html=1;aspect=fixed;" vertex="1" parent="q-2KJZIHNxTsaiK5psSX-1">
          <mxGeometry x="1105" y="1080" width="40" height="40" as="geometry" />
        </mxCell>
        <mxCell id="iS4V_TlljnpKeOz6fann-2" value="Output&lt;div&gt;&quot;Pilihan tidak valid&quot;&lt;/div&gt;" style="shape=parallelogram;perimeter=parallelogramPerimeter;whiteSpace=wrap;html=1;fixedSize=1;fontFamily=Times New Roman;fillColor=#d5e8d4;strokeColor=#82b366;fontSize=13;" vertex="1" parent="q-2KJZIHNxTsaiK5psSX-1">
          <mxGeometry x="2506.54" y="120" width="140" height="40" as="geometry" />
        </mxCell>
      </root>
    </mxGraphModel>
  </diagram>
</mxfile>
